<svg xmlns="http://www.w3.org/2000/svg" width="32.698" height="25.483" viewBox="0 0 32.698 25.483"><defs><style>.a{fill:#b3eae9;}.b{fill:#020288;}</style></defs><g transform="translate(0.639 8.066)"><path class="a" d="M10,182.795H38.326v3.967H10Z" transform="translate(-10 -182.795)"/></g><g transform="translate(0 0)"><path class="b" d="M30.037,56.489H5.756A2.666,2.666,0,0,0,3.1,59.153v.436H2.661A2.666,2.666,0,0,0,0,62.253V79.308a2.666,2.666,0,0,0,2.661,2.664H26.942A2.666,2.666,0,0,0,29.6,79.308v-.436h.434A2.666,2.666,0,0,0,32.7,76.208V59.153A2.666,2.666,0,0,0,30.037,56.489ZM28.326,79.308a1.387,1.387,0,0,1-1.384,1.387H2.661a1.387,1.387,0,0,1-1.384-1.387V62.253a1.387,1.387,0,0,1,1.384-1.387H26.942a1.387,1.387,0,0,1,1.384,1.387Zm3.1-3.1a1.387,1.387,0,0,1-1.384,1.387H29.6V62.253a2.666,2.666,0,0,0-2.661-2.664H4.372v-.436a1.387,1.387,0,0,1,1.384-1.387H30.037a1.387,1.387,0,0,1,1.384,1.387Z" transform="translate(0 -56.489)"/><path class="b" d="M63.06,298.444h-6.5a.639.639,0,0,0-.639.639v4.9a.639.639,0,0,0,.639.639h6.5a.639.639,0,0,0,.639-.639v-4.9A.639.639,0,0,0,63.06,298.444Zm-.639,4.9H57.2v-3.624h5.218Z" transform="translate(-52.354 -282.992)"/><path class="b" d="M306.92,294.769a3.324,3.324,0,1,0,3.321,3.324A3.326,3.326,0,0,0,306.92,294.769Zm0,5.37a2.047,2.047,0,1,1,2.044-2.047A2.048,2.048,0,0,1,306.92,300.139Z" transform="translate(-284.21 -279.552)"/></g></svg>