<svg xmlns="http://www.w3.org/2000/svg" width="451.141" height="426.922" viewBox="0 0 451.141 426.922"><defs><style>.a{fill:#9bb3d9;}.b{fill:#ccdcfd;}.c{fill:#fffbfc;}.d{fill:#e1ecff;}.e{fill:#27255e;}.f{fill:#d08a7b;}.g{fill:#dd9c83;}.h{fill:#7f9389;}.i{fill:#d0d3e3;}.j{fill:#030928;}.k{fill:#444053;}.l{fill:#bc807a;}.m{fill:#4b5e97;}.n{fill:#dce6f2;}.o{fill:#21263a;}.p{fill:#1b2c3e;}.q{fill:#e297bd;}.r{fill:#b7865e;}.s{fill:#98a49e;}.t{fill:#ccc072;}.u{fill:#bfae5a;}.v{fill:#60061e;}.w{fill:#2aa06b;}.x{fill:#42b280;}.y{fill:#557bb7;}</style></defs><g transform="translate(-783 -4294.283)"><g transform="translate(971.664 4294.283)"><rect class="a" width="12.65" height="26.094" transform="translate(69.922 24.597)"/><rect class="a" width="12.65" height="26.094" transform="translate(186.58 24.597)"/><rect class="b" width="227.692" height="369.954" transform="translate(20.027 44.455)"/><rect class="a" width="212.231" height="344.835" transform="translate(27.758 50.691)"/><rect class="b" width="208.717" height="28.812" transform="translate(31.271)"/><rect class="b" width="227.692" height="8.433" transform="translate(20.027 128.604)"/><rect class="b" width="227.692" height="8.433" transform="translate(20.027 214.949)"/><rect class="b" width="227.692" height="8.433" transform="translate(20.027 301.295)"/><rect class="a" width="262.479" height="12.512" transform="translate(-0.001 414.411)"/></g><g transform="translate(1016.025 4360.653)"><path class="c" d="M266.581,143.342v-4.705H248.3v4.705a4.166,4.166,0,0,1-4.166,4.166h0v41.672a8.876,8.876,0,0,0,8.876,8.876h8.876a8.876,8.876,0,0,0,8.876-8.876V147.507h0a4.166,4.166,0,0,1-4.183-4.166Z" transform="translate(-244.138 -134.872)"/><rect class="d" width="23.389" height="5.376" transform="translate(1.607 0)"/><rect class="d" width="21.776" height="31.454" transform="translate(4.832 16.667)"/></g><g transform="translate(1065.328 4360.653)"><path class="c" d="M302.581,143.342v-4.705H284.3v4.705a4.166,4.166,0,0,1-4.166,4.166h0v41.672a8.876,8.876,0,0,0,8.876,8.876h8.876a8.876,8.876,0,0,0,8.876-8.876V147.507h0a4.166,4.166,0,0,1-4.183-4.166Z" transform="translate(-280.138 -134.872)"/><rect class="d" width="23.389" height="5.376" transform="translate(1.607 0)"/><rect class="d" width="21.776" height="31.454" transform="translate(4.833 16.667)"/></g><g transform="translate(1016.025 4447.167)"><path class="c" d="M266.581,206.518v-4.707H248.3v4.707a4.166,4.166,0,0,1-4.166,4.166h0v41.67a8.876,8.876,0,0,0,8.876,8.876h8.876a8.876,8.876,0,0,0,8.876-8.876v-41.67h0a4.166,4.166,0,0,1-4.183-4.166Z" transform="translate(-244.136 -198.048)"/><rect class="d" width="23.389" height="5.376" transform="translate(1.609 0)"/><rect class="d" width="21.776" height="31.454" transform="translate(4.835 16.667)"/></g><g transform="translate(1065.328 4447.167)"><path class="c" d="M302.581,206.518v-4.707H284.3v4.707a4.166,4.166,0,0,1-4.166,4.166h0v41.67a8.876,8.876,0,0,0,8.876,8.876h8.876a8.876,8.876,0,0,0,8.876-8.876v-41.67h0a4.166,4.166,0,0,1-4.183-4.166Z" transform="translate(-280.138 -198.048)"/><rect class="d" width="23.389" height="5.376" transform="translate(1.607 0)"/><rect class="d" width="21.776" height="31.454" transform="translate(4.833 16.667)"/></g><g transform="translate(1016.025 4533.681)"><path class="c" d="M266.581,269.694v-4.707H248.3v4.707a4.166,4.166,0,0,1-4.166,4.166h0v41.67a8.876,8.876,0,0,0,8.876,8.876h8.876a8.876,8.876,0,0,0,8.876-8.876V273.86h0a4.166,4.166,0,0,1-4.183-4.166Z" transform="translate(-244.136 -261.223)"/><rect class="d" width="23.389" height="5.376" transform="translate(1.609 0)"/><rect class="d" width="21.776" height="31.454" transform="translate(4.835 16.667)"/></g><g transform="translate(1065.328 4533.681)"><path class="c" d="M302.581,269.694v-4.707H284.3v4.707a4.166,4.166,0,0,1-4.166,4.166h0v41.67a8.876,8.876,0,0,0,8.876,8.876h8.876a8.876,8.876,0,0,0,8.876-8.876V273.86h0a4.166,4.166,0,0,1-4.183-4.166Z" transform="translate(-280.138 -261.223)"/><rect class="d" width="23.389" height="5.376" transform="translate(1.607 0)"/><rect class="d" width="21.776" height="31.454" transform="translate(4.833 16.667)"/></g><g transform="translate(1016.025 4626.551)"><path class="c" d="M266.581,337.51V332.8H248.3v4.706a4.166,4.166,0,0,1-4.166,4.166h0v41.67a8.876,8.876,0,0,0,8.876,8.876h8.876a8.876,8.876,0,0,0,8.876-8.876V341.676h0a4.166,4.166,0,0,1-4.183-4.166Z" transform="translate(-244.138 -329.04)"/><rect class="d" width="23.389" height="5.376" transform="translate(1.607)"/><rect class="d" width="21.776" height="31.454" transform="translate(4.832 16.669)"/></g><g transform="translate(1065.328 4626.551)"><path class="c" d="M302.581,337.51V332.8H284.3v4.706a4.166,4.166,0,0,1-4.166,4.166h0v41.67a8.876,8.876,0,0,0,8.876,8.876h8.876a8.876,8.876,0,0,0,8.876-8.876V341.676h0a4.166,4.166,0,0,1-4.183-4.166Z" transform="translate(-280.138 -329.04)"/><rect class="d" width="23.389" height="5.376" transform="translate(1.607)"/><rect class="d" width="21.776" height="31.454" transform="translate(4.833 16.669)"/></g><path class="e" d="M417.561,229.327l1.28,1.313-1.235.062Z" transform="translate(581.813 4252.106)"/><g transform="translate(783 4327.781)"><path class="f" d="M529.118,260.507a62.568,62.568,0,0,0,2.017-8.353,14.178,14.178,0,0,1,.944-3.728.775.775,0,0,1,.253-.343c.332-.215.754.121.952.464a5.486,5.486,0,0,1,.365,3.605,12.751,12.751,0,0,0-.346,3.665,12.178,12.178,0,0,0,.556,2.037,5.333,5.333,0,0,1-4.473,6.856c-.762-.031-1.934-.771-1.619-1.644.125-.346.614-.71.8-1.075A10,10,0,0,0,529.118,260.507Z" transform="translate(-357.916 -131.374)"/><path class="g" d="M498.818,447.508c-.041-.06-.083-.116-.122-.176-4-5.862.009-19.1.816-25.693q1.784-14.565,3.569-29.128c1.414-11.54,4.553-24.126,4.383-35.774,0,0-.028-1.957-.077-5.264-.437.048-.864.095-1.3.145-9.6,1.019-19.577,2.983-29.314,2.28-.464,2.814-1.106,5.608-1.356,8.531-.736,8.566.163,17.182,1.046,25.7,1.33,12.8,3.338,25.729,4.006,38.58.537,10.31.234,20.932.327,31.412,9.826.617,19.6,1.814,29.219,1.667,1.96-.029,15,.1,16.957.035-3.732-2.405-18.538-5-22.27-7.4a21,21,0,0,1-5.887-4.913Z" transform="translate(-383.069 -81.981)"/><path class="h" d="M527.2,429.259a4.035,4.035,0,0,0-1.116-.9c-4.848-2.764-10.524-3.637-15.668-5.8-3.894-1.634-8.25-3.492-11.441-6.3-.437-.38-.77-.748-1.091-1.061a13.634,13.634,0,0,1-4.625,1.371,27.519,27.519,0,0,1-5.267.188c-2.823-.163-5.434-1.31-8.167-1.918a1.522,1.522,0,0,0-.617.157c-.773,4.275-1.653,8.542-2.057,12.864.039.074.076.146.118.218,2.037,3.379,9.779,3.117,13.209,3.53a166.089,166.089,0,0,0,17.578,1.177c3.239.045,6.6.709,9.831.57a24.534,24.534,0,0,0,8.364-1.746,2.038,2.038,0,0,0,1.267-1.019A1.334,1.334,0,0,0,527.2,429.259Z" transform="translate(-382.121 -51.729)"/><path class="i" d="M527.8,427.426a17.472,17.472,0,0,1-7.188,1.775,105.042,105.042,0,0,1-16.587-.962,109.529,109.529,0,0,1-16.712-2.81,40.254,40.254,0,0,1-9.709-3.3,1.146,1.146,0,0,0-.605.515,12.5,12.5,0,0,0-.8,5.093,1.868,1.868,0,0,0,.164,1.019,1.756,1.756,0,0,0,.8.631,12.641,12.641,0,0,0,4.023,1,53,53,0,0,0,8.9.084c1.915-.108,3.83-.253,5.743-.349a33.909,33.909,0,0,1,4.778.019c1.573.145,3.125.471,4.679.755a50.748,50.748,0,0,0,13.131.873c2.245-.179,9.954-.5,9.426-4.106a2.176,2.176,0,0,0-.048-.234Z" transform="translate(-382.592 -48.249)"/><g transform="translate(115.863 364.912)"><path class="j" d="M517.017,428.334l-.365-.113c-9.255-2.871-18-5.581-25.4-11.856l.26-.307c7.345,6.222,16.047,8.919,25.262,11.778l.367.114Z" transform="translate(-491.247 -416.058)"/></g><g transform="translate(96.19 368.791)"><path class="j" d="M485.252,426.484a14.406,14.406,0,0,0-5.093-6.674,2.92,2.92,0,0,0-2.137-.717l-.083-.394a3.273,3.273,0,0,1,2.455.786,14.81,14.81,0,0,1,5.238,6.862Z" transform="translate(-477.939 -418.684)"/></g><g transform="translate(110.59 358.166)"><path class="j" d="M496.214,418.83a15.089,15.089,0,0,1-2.957-.291l-.189-.038v.093a8.974,8.974,0,0,1-2.818-.56,4.946,4.946,0,0,1-1.753-1.263,3.249,3.249,0,0,1-.818-2.027,1.58,1.58,0,0,1,.911-1.586,1.765,1.765,0,0,1,1.548.367,6.889,6.889,0,0,1,2.092,2.2c-.02-.195-.035-.391-.041-.582a4.853,4.853,0,0,1,.668-2.753,1.66,1.66,0,0,1,1.545-.892,1.337,1.337,0,0,1,.907.682,2.5,2.5,0,0,1,.279,1.036,8.05,8.05,0,0,1-.332,2.729,5.54,5.54,0,0,1-.6,1.518,2.721,2.721,0,0,1-.727.794,14.747,14.747,0,0,0,5.394-.146l.086.393A15.127,15.127,0,0,1,496.214,418.83Zm-7.245-5.333a.758.758,0,0,0-.255.041,1.205,1.205,0,0,0-.64,1.195,2.849,2.849,0,0,0,.727,1.774,4.541,4.541,0,0,0,1.614,1.164,8.582,8.582,0,0,0,2.677.525h0l.146-.048a2.076,2.076,0,0,0,1.075-.909,5.187,5.187,0,0,0,.551-1.409,7.677,7.677,0,0,0,.319-2.593,2.109,2.109,0,0,0-.227-.873.931.931,0,0,0-.623-.483,1.275,1.275,0,0,0-1.139.71,4.46,4.46,0,0,0-.605,2.524,11.105,11.105,0,0,0,.361,2.273c.036.132.071.266.1.4l-.391.092c-.032-.129-.066-.262-.1-.391a6.5,6.5,0,0,0-2.647-3.638,1.792,1.792,0,0,0-.946-.354Z" transform="translate(-487.671 -411.492)"/></g><path class="g" d="M441.372,389.248c-.738,8.566.163,17.182,1.046,25.7,1.33,12.8,3.338,25.729,4.006,38.58.537,10.31.234,20.932.326,31.412,9.826.617,19.6,1.814,29.221,1.667,1.96-.029,15,.1,16.957.035-3.732-2.405-18.54-5-22.27-7.4a21,21,0,0,1-5.884-4.908c-.042-.06-.084-.116-.124-.176-4-5.862.009-19.1.816-25.693l3.565-29.128c1.414-11.54,4.554-24.126,4.384-35.774,0-.012-1.227-83.339-1.227-83.339l-32.412-4.934c1.154,26.569,3.435,53.326,3.472,79.915C443.257,379.987,441.785,384.439,441.372,389.248Z" transform="translate(-399.957 -108.804)"/><path class="k" d="M434.227,396.463c12.926,2.634,32.712,1.746,45.9,1.57,2.213-20.7.146-43.761,2.36-64.457,2.893,21.054,4.732,42.04,7.624,63.094,16.129,1.365,29.064,1.647,42.51-1.4-4.81-41.014-14.668-77.091-21.75-116.16-.445-2.459-39.069,1.011-43.214,1.5-4.63.549-19.432.422-22.681,3.757-2.226,2.286-2.389,11.745-2.721,15.029C439.152,329.97,435.708,363.929,434.227,396.463Z" transform="translate(-402.604 -116.946)"/><rect class="f" width="28.273" height="35.529" transform="translate(87.818 76.538) rotate(-164.338)"/><path class="l" d="M462.476,200.924c2.136,6.4,5.587,12.743,12.267,15.148a15.278,15.278,0,0,0,7.917.7l4.676-16.644-26.553-7.46A30.436,30.436,0,0,0,462.476,200.924Z" transform="translate(-389.924 -157.799)"/><path class="m" d="M451.9,227.568h6.741l4.3,13.062C459.525,236.016,456.191,231.284,451.9,227.568Z" transform="translate(-394.168 -141.135)"/><path class="j" d="M487.077,183.541a44.469,44.469,0,0,1-2.1,6.366,7.022,7.022,0,0,1-1.509,2.488q-.24-4-.26-8a12.993,12.993,0,0,1,.09-1.919,2.541,2.541,0,0,1,.356-1.075,2.236,2.236,0,0,1,1.042-.773c.575-.23,2-.582,2.519-.054C487.8,181.175,487.247,182.85,487.077,183.541Z" transform="translate(-379.229 -163.706)"/><path class="g" d="M457.1,192.361a12.724,12.724,0,0,1,.367-6.526c1.487-4.138,5.321-7,9.3-8.861a21.7,21.7,0,0,1,5.7-1.878,23.843,23.843,0,0,1,3.616-.258,34.159,34.159,0,0,1,13.4,2.328,12.545,12.545,0,0,1,5.408,3.457,13.969,13.969,0,0,1,2.183,7.292c.146,2.543-.7,4.711-1.069,7.189-.291,1.972-.63,10.277-1,12.416a23.345,23.345,0,0,1-1.247,4.822,10.357,10.357,0,0,1-7.093,6.388,11.6,11.6,0,0,1-3.816.073c-7.016-.883-12.574-5.954-17.414-11.111a35.169,35.169,0,0,1-7.522-11.447,20.278,20.278,0,0,1-.818-3.885Z" transform="translate(-391.835 -166.317)"/><g transform="translate(92.341 26.629)"><path class="j" d="M479.346,201.694a.714.714,0,0,0,.752-.338,1.106,1.106,0,0,0,.116-.554,28.1,28.1,0,0,0-.986-6.582,25.855,25.855,0,0,1-.963-6.839.272.272,0,0,0-.253-.291.275.275,0,0,0-.274.272,26.318,26.318,0,0,0,.978,6.993,27.59,27.59,0,0,1,.976,6.443.627.627,0,0,1-.035.262c-.077.131-.377.068-.618-.06a10.577,10.577,0,0,1-3.255-2.657.252.252,0,0,0-.371-.023.291.291,0,0,0-.028.4,11.15,11.15,0,0,0,3.406,2.794,1.621,1.621,0,0,0,.554.185Z" transform="translate(-475.321 -187.09)"/></g><g transform="translate(88.781 41.98)"><path class="j" d="M479.4,200.249a.291.291,0,0,0-.02-.582,15.322,15.322,0,0,1-2.716-.132,4.83,4.83,0,0,1-2.375-1.018,7.336,7.336,0,0,1-.86-.928.295.295,0,1,0-.454.375,7.994,7.994,0,0,0,.931,1,5.4,5.4,0,0,0,2.658,1.164,15.8,15.8,0,0,0,2.821.145Z" transform="translate(-472.907 -197.481)"/></g><path class="j" d="M485.641,187.61a8.126,8.126,0,0,0-4.2-3.185,1.512,1.512,0,0,0-.914.061,1.957,1.957,0,0,0-.885,1.534,16.91,16.91,0,0,0-.281,1.7,5.175,5.175,0,0,1,5.755,3.937,1.134,1.134,0,0,0,.57-.109,1.938,1.938,0,0,0,.727-.825l.073-.124A6.2,6.2,0,0,0,485.641,187.61Z" transform="translate(-381.065 -161.755)"/><path class="j" d="M468.257,191.271a.5.5,0,0,0,.24.1,6.229,6.229,0,0,1,3.086-2.6,7.8,7.8,0,0,1,5.529.207c-.215-1.318-.384-3.392-1.513-4.157-1.164-.784-3.445-.278-4.551.346a6.11,6.11,0,0,0-2.277,2.6,5.384,5.384,0,0,0-.745,2.957A.764.764,0,0,0,468.257,191.271Z" transform="translate(-386.461 -161.738)"/><path class="j" d="M480.543,190.926a1.684,1.684,0,0,1,1.139-.437,1.64,1.64,0,0,1,1.119.492,1.6,1.6,0,0,1-.048,2.258,1.686,1.686,0,0,1-1.138.437,1.6,1.6,0,0,1-1.072-2.75Z" transform="translate(-380.726 -158.839)"/><path class="j" d="M470.456,190.819a1.7,1.7,0,0,1,1.192-.666,1.968,1.968,0,0,1,1.276.359,1.8,1.8,0,0,1,.668,1.193,1.777,1.777,0,0,1-.361,1.275,1.7,1.7,0,0,1-1.192.668,1.971,1.971,0,0,1-1.276-.359,1.807,1.807,0,0,1-.668-1.193A1.78,1.78,0,0,1,470.456,190.819Z" transform="translate(-385.488 -159.002)"/><path class="j" d="M492.746,169.169a21.335,21.335,0,0,1,3.175.582l-1.011.861a12.56,12.56,0,0,1,11.2,7.5,5.581,5.581,0,0,1,.146,4.793,5.924,5.924,0,0,1-3.076,2.356,17.516,17.516,0,0,1-8.63,1.215,2.932,2.932,0,0,1,1.468.917,16.794,16.794,0,0,1-8.065,2.431,35.628,35.628,0,0,1-15.914-2.337,6.217,6.217,0,0,0-1.937-.547c-2.567-.128-2.328,4.6-2.663,6.389l-.847,4.585c-.108.582-1.181,4.24-.847,4.583-2.151-2.2-7.182-4.793-8.563-4.316-.278.095-.918-5.093-1.037-6.868a18.583,18.583,0,0,1,.409-6.293,7.141,7.141,0,0,1,3.435-4.585c.707-.368,4.823-1.523,5.384-.656l-2.8-4.365a5.41,5.41,0,0,1-1.219-3.553c2.655.582,4.355,3.1,5.778,5.42a29.6,29.6,0,0,1,1.455-7.959c.773.231,1.043,1.177,1.116,1.982a13.155,13.155,0,0,1-.795,5.8c2.629-2.986,7.316-4.406,10.923-5.883A26.979,26.979,0,0,1,492.746,169.169Z" transform="translate(-392.225 -169.067)"/><path class="n" d="M500.082,242.739c1.756,12.359,3.021,24.783,3.991,37.228q20.926-5.014,42.264-7.982,1.435,12.73,2.866,25.463-11.832,3.841-23.731,7.476c-9.749,2.981-19.788,5.886-29.973,5.33a9.394,9.394,0,0,1-4.486-1.087,9.6,9.6,0,0,1-3.138-3.893c-7.5-14.16-8.563-30.75-8.941-46.767-.247-10.384-.252-20.916,2.372-30.967a19.143,19.143,0,0,1,3.312-7.4C494.88,207.567,499.244,236.847,500.082,242.739Z" transform="translate(-381.332 -146.167)"/><path class="n" d="M519.116,229.474a18.769,18.769,0,0,0-8.845-10.587c-2.357-1.2-4.988-2.076-7.421-3.134-.991-.436-6.58-3.638-7.367-3.2a21.825,21.825,0,0,1-26.838-5.424c-11.985,8.094-26.023,8.253-38.1,16.2,6.8,4.947,1.57,18.359,7.968,23.811,4.04,3.444,5.206,78.524,5.276,85.52l73.822-.436c-1.422-12.56-4.11-19.564-3.558-26.059.458-5.384,2.983-40.847,3.828-46.152.873-5.439,2.728-10.331,2.948-15.963a38.732,38.732,0,0,0-1.71-14.579Z" transform="translate(-404.308 -150.894)"/><path class="n" d="M514.279,300.33c.07-.824.188-2.35.342-4.365a14.511,14.511,0,0,1-7.991-3.719c-3.737-3.333-6.583-7.515-10.476-10.709a30.08,30.08,0,0,0-14.88-6.363c-5.175-.813-10.684-1.512-14.8-5.068a22.643,22.643,0,0,1-6.417-10.942c-2.648-8.913-2.474-18.425-7.231-26.659-4.745-8.2-12.99-14.514-22.647-12.871,5.724,5.264,2.427,16.427,8.564,21.658,4.041,3.444,5.206,78.524,5.276,85.52l73.821-.436C516.415,313.829,513.726,306.825,514.279,300.33Z" transform="translate(-404.54 -145.049)"/><g transform="translate(62.533 57.21)"><path class="o" d="M475.667,216.708a18.068,18.068,0,0,0,2.3-.145,11.951,11.951,0,0,0,7.157-3.357l-.506-.484a11.253,11.253,0,0,1-6.74,3.146,25.443,25.443,0,0,1-7.669-.436c-7.1-1.294-11.838-3.793-14.48-7.642l-.582.4c2.753,4.01,7.637,6.6,14.933,7.934A31.255,31.255,0,0,0,475.667,216.708Z" transform="translate(-455.151 -207.789)"/></g><path class="n" d="M433.2,287.313a178.561,178.561,0,0,1,15.132-11.9c2.238-5.077,18.42-33.644,17.882-37.673-1.446-10.821-19.352-17.479-27.155-19.643,0,0-17.664,44.3-22.272,56.273-2.319,6.025-9.041,21.323,3.076,29.246A106.585,106.585,0,0,1,433.2,287.313Z" transform="translate(-412.828 -145.658)"/><path class="g" d="M460.665,189.041a7.477,7.477,0,0,0-4.385.1,3.731,3.731,0,0,0-2.5,2.619,4.477,4.477,0,0,0,1.154,3.384,12.219,12.219,0,0,0,3.734,3.217,4.22,4.22,0,0,0,4.074.436,5,5,0,0,0,1.44-1.518c1.086-1.529,2.078-3.13,1.086-4.914a7.191,7.191,0,0,0-4.6-3.322Z" transform="translate(-393.245 -159.664)"/><path class="l" d="M461.376,192.025a7.451,7.451,0,0,0-2.517-1.3,4.679,4.679,0,0,0-3.121-.129,1.443,1.443,0,0,0-.669.479,1.776,1.776,0,0,0,.08,1.7,6.281,6.281,0,0,0,3.706,3.587,3.336,3.336,0,0,0,2.485-.146C463.306,195.192,462.8,193.213,461.376,192.025Z" transform="translate(-392.732 -158.886)"/><g transform="translate(64.357 33.913)"><path class="j" d="M456.578,193.922a17.6,17.6,0,0,1,3.022-1.579l-.131-.323a17.933,17.933,0,0,0-3.083,1.609Z" transform="translate(-456.386 -192.02)"/></g><g transform="translate(62.693 32.152)"><path class="j" d="M462.547,194.7l.228-.266a16.006,16.006,0,0,0-7.45-3.605l-.067.346a15.618,15.618,0,0,1,7.288,3.525Z" transform="translate(-455.259 -190.828)"/></g><path class="n" d="M493.442,276.609a44.862,44.862,0,0,1-6.727-17.274c-13.645.031-45.581-4.938-48.611-3.408-3.419,1.73-20.677,29.631-20.516,29.772,2.765,2.347,72.35-1.6,81.073-1.8a74.525,74.525,0,0,1-5.221-7.292Z" transform="translate(-410.558 -127.736)"/><g transform="translate(21.727 128.557)"><path class="o" d="M428.086,264.046l-.557-.582a30.134,30.134,0,0,1,13.241-7.384l.2.778A29.31,29.31,0,0,0,428.086,264.046Z" transform="translate(-427.529 -256.08)"/></g><g transform="translate(23.552 90.201)"><path class="o" d="M429.188,269.062l-.4-.7c3.168-1.79,6.984-1.5,10.358-1.25a1.042,1.042,0,0,0,.554-.045,1.087,1.087,0,0,0,.3-.421l10.287-20.139c2.072-4.054,4.212-8.247,5.955-12.529a6.121,6.121,0,0,0,.648-3.665l.781-.2a6.783,6.783,0,0,1-.682,4.163c-1.756,4.313-3.907,8.522-5.984,12.592L440.72,267.012a1.382,1.382,0,0,1-1.63.9C435.834,267.671,432.143,267.4,429.188,269.062Z" transform="translate(-428.792 -230.119)"/></g><g transform="translate(165.697 126.507)"><path class="f" d="M546.027,261.507c-.154-1.662-.386-4.438-1.6-5.708a4.3,4.3,0,0,0-3.175-1.1c-2.91.025-5.557,1.547-8.093,2.961-.706.394-1.417.78-2.145,1.13a15.086,15.086,0,0,1-3.53,1.256,14.236,14.236,0,0,1-1.906.186c-.637.041-.519-.087-.631.437a16.2,16.2,0,0,0,.447,4.426c.322,2.8.688,5.59,1.049,8.382a20.8,20.8,0,0,1,7.291-3.1c1.957-.291,3.955-.265,5.9-.615a8.114,8.114,0,0,0,5.119-2.724,5.915,5.915,0,0,0,.86-1.6A9.259,9.259,0,0,0,546.027,261.507Z" transform="translate(-524.935 -254.693)"/></g><g transform="translate(75.296 131.842)"><path class="p" d="M467.128,274.037c-.354-1.58-.8-3.208-1.232-4.784a47.838,47.838,0,0,1-2.107-10.923l.8-.026a47.225,47.225,0,0,0,2.078,10.737c.436,1.584.883,3.221,1.243,4.82Z" transform="translate(-463.789 -258.304)"/></g><g transform="translate(112.773 81.099)"><path class="p" d="M489.954,260.963l-.8-.086q.24-2.228.5-4.461c1.215-10.668,2.474-21.7-.1-32.268l.781-.191c2.6,10.709,1.339,21.812.116,32.55Q490.193,258.739,489.954,260.963Z" transform="translate(-489.155 -223.958)"/></g><g transform="translate(50.776 148.112)"><path class="q" d="M497.663,296.554A19.932,19.932,0,0,1,499,289.287a2.1,2.1,0,0,1,.847-1.078.831.831,0,0,1,1.164.368,16.515,16.515,0,0,1,4.707-9.356,8.272,8.272,0,0,1,3.45-2.207,4.2,4.2,0,0,1,3.9.728,4.931,4.931,0,0,1,1.413,2.977,15.663,15.663,0,0,1-.717,6.6,47.139,47.139,0,0,1-3.617,9.082,3.807,3.807,0,0,1,2.524-1.455,1.066,1.066,0,0,1,.707.1c.409.262.365.873.244,1.339-1.116,4.3-4.5,7.6-7.847,10.523-.436.388-3.959-1.279-4.51-1.518a5.631,5.631,0,0,1-2.645-1.669C497.386,301.819,497.564,298.679,497.663,296.554Z" transform="translate(-423.161 -265.734)"/><path class="h" d="M479.447,297c-.789-1.33-1.208-3.543.274-3.985a2.3,2.3,0,0,1,1.646.3,8.686,8.686,0,0,1,3.394,3.039c-1.814-3.506-3.681-7.367-2.9-11.234a2.059,2.059,0,0,1,1.081-1.65c.991-.352,1.874.709,2.4,1.624l3.2,5.606a18.5,18.5,0,0,1,1.133-15.918,3.743,3.743,0,0,1,1.9-1.867,3.609,3.609,0,0,1,3.143.947,16.767,16.767,0,0,1,5.737,10.384,49.763,49.763,0,0,1,.207,12.1A13.726,13.726,0,0,1,504,291.517a4.691,4.691,0,0,1,5.474-.563,5.8,5.8,0,0,1,1.884,4.78,17.145,17.145,0,0,1-1.746,7.743,3.852,3.852,0,0,1-1.164,1.547,4.284,4.284,0,0,1-2.193.553,114.756,114.756,0,0,1-16.834-.164c-2.98-.249-3.943-.226-5.854-2.535A46.173,46.173,0,0,1,479.447,297Z" transform="translate(-432.117 -267.629)"/><g transform="translate(20.669 0)"><path class="j" d="M464.823,308.188a59.728,59.728,0,0,1,6.144-23.948c3.869-7.29,8.876-11.305,14.114-11.305s10.248,4.016,14.114,11.305a59.726,59.726,0,0,1,6.144,23.948h3.627a63.516,63.516,0,0,0-6.574-25.643c-4.526-8.531-10.675-13.229-17.315-13.229s-12.788,4.7-17.315,13.229a63.512,63.512,0,0,0-6.572,25.643Z" transform="translate(-461.191 -269.316)"/></g><path class="r" d="M475.641,291.8l-.063-.159a27.487,27.487,0,0,1-4.979,4.914q-.677.53-1.379,1.027c2.91-.077,5.83-.089,8.756.045C477.544,297.607,475.881,292.411,475.641,291.8Z" transform="translate(-436.675 -258.657)"/><path class="r" d="M475.58,289.787c-.1-.256-.2-.509-.3-.767q-.991-2.581-1.956-5.171a48.849,48.849,0,0,1-8.66,6.133A25.772,25.772,0,0,0,475.58,289.787Z" transform="translate(-438.848 -262.377)"/><path class="s" d="M450.351,301.109c-.145-.307-.281-.709-.048-.962a.86.86,0,0,1,.6-.205,10.478,10.478,0,0,1,3.175.271c-2.722-3.322-5.541-6.839-6.316-11.058a1.793,1.793,0,0,1,.119-1.309c.419-.636,1.374-.547,2.092-.291a17.964,17.964,0,0,1,3.607,1.932,17.682,17.682,0,0,1-4.806-16.661,3.155,3.155,0,0,1,1.155-2.012,2.572,2.572,0,0,1,1.816-.236c2.413.436,4.153,2.505,5.548,4.521a123.956,123.956,0,0,1,9.909,18.479,12.751,12.751,0,0,1,.4-7.9c.327-.851.978-1.8,1.883-1.7a2.089,2.089,0,0,1,1.385,1.173,19.565,19.565,0,0,1,2.175,7.712c.607,5.005.761,10.054.914,15.093a1.044,1.044,0,0,1-.1.6,1.062,1.062,0,0,1-.738.378c-3.929.8-9.559,2.395-13.343.56S452.263,304.94,450.351,301.109Z" transform="translate(-446.963 -268.748)"/><path class="q" d="M455.769,288.857a69.148,69.148,0,0,1,3.323-14.135A27.822,27.822,0,0,1,471.4,296.281l3.08-9.245c.145-.436.386-.94.839-.963s.746.463.924.882a30.923,30.923,0,0,1,2.405,11.035,5.987,5.987,0,0,1-.768,3.69c-1.061,1.494-3.1,1.832-4.918,2.044-3.959.464-11.589,3.138-14.649-.486C455.481,299.876,455.369,292.866,455.769,288.857Z" transform="translate(-443.147 -266.735)"/><g transform="translate(26.25 3.867)"><path class="t" d="M475.531,296.867c-2.884-1.31-3.744-5.03-3.547-8.193a5.744,5.744,0,0,0-.063-1.862c-.436-1.609-2.235-2.34-3.6-3.307a8.516,8.516,0,0,1-2.359-10.809,1.556,1.556,0,0,1,.677-.713,1.64,1.64,0,0,1,1.4.291,14.319,14.319,0,0,1,6.888,10.284,8.135,8.135,0,0,0,.79,3.291,7.677,7.677,0,0,0,1.44,1.515c2.328,2.124,5.186,6,5.279,9.312.06,2.148.035,1.768-1.932,1.523A20.135,20.135,0,0,1,475.531,296.867Z" transform="translate(-464.956 -271.933)"/><path class="u" d="M475.135,294.369a5.871,5.871,0,0,1-1.106-3.479,17.1,17.1,0,0,0,.1-2.474,13.606,13.606,0,0,0-1.28-3.211,7.178,7.178,0,0,1-.311-4.365,12.176,12.176,0,0,0,.451-1.891,22.213,22.213,0,0,0-.373-3.083c-.058-1.036.428-2.27,1.455-2.436.937-.146,1.746.663,2.245,1.464a10.953,10.953,0,0,1,1.65,4.931c.179,2.175-.237,4.595,1.052,6.356.356.487.822.885,1.183,1.368a8.148,8.148,0,0,1,1.218,3.684,11.83,11.83,0,0,1,.017,5.4,6.2,6.2,0,0,1-3.2.125,8.352,8.352,0,0,1-2.737-1.922A4.98,4.98,0,0,1,475.135,294.369Z" transform="translate(-461.443 -271.227)"/><path class="t" d="M475.542,288.556a5.966,5.966,0,0,1,1.4-3.156c.514-.524,1.206-.89,1.573-1.526a16.261,16.261,0,0,0,.611-2c.794-1.921,3.411-2.113,5.117-3.3a22.018,22.018,0,0,1,1.791-1.376,1.867,1.867,0,0,1,2.116.022,2.434,2.434,0,0,1,.455,2.146,5.149,5.149,0,0,1-.888,2.65,10.26,10.26,0,0,1-1.809,1.455,6.287,6.287,0,0,0-2.328,5.442,7.378,7.378,0,0,1,.121,2.93c-.453,1.414-2.072,2.028-3.492,2.456a1.017,1.017,0,0,1-.562.06,1.085,1.085,0,0,1-.514-.461c-.917-1.26-2.949-2.22-3.464-3.662a3.662,3.662,0,0,1-.128-1.686Z" transform="translate(-459.898 -269.569)"/><path class="v" d="M471.354,291.56a9.5,9.5,0,0,1,5.983-3.9,8.054,8.054,0,0,1,6.527,1.216c2.3,1.768,3.064,4.844,3.637,7.685a1.355,1.355,0,0,1-.183,1.285,1.319,1.319,0,0,1-.728.258,64.687,64.687,0,0,1-13.451.728C469.163,298.534,469.388,294.539,471.354,291.56Z" transform="translate(-462.554 -264.537)"/></g><g transform="translate(0 32.433)"><path class="w" d="M526.336,335.176l-67.222.818-8.705-42,83.724-.035Z" transform="translate(-445.655 -289.984)"/><path class="x" d="M535.491,301.329l-83.2,1.019a5.029,5.029,0,0,1-5.093-4.967h0a5.028,5.028,0,0,1,4.967-5.093l83.2-1.018a5.028,5.028,0,0,1,5.093,4.967h0A5.029,5.029,0,0,1,535.491,301.329Z" transform="translate(-447.193 -291.269)"/><path class="x" d="M468.563,305.382l-7.421.09a2.53,2.53,0,0,1-2.561-2.5h0a2.53,2.53,0,0,1,2.5-2.561l7.412-.09a2.529,2.529,0,0,1,2.561,2.5h0a2.53,2.53,0,0,1-2.491,2.561Z" transform="translate(-441.77 -286.945)"/><path class="x" d="M478.769,305.259l-7.412.09a2.532,2.532,0,0,1-2.561-2.5h0a2.532,2.532,0,0,1,2.5-2.561l7.412-.09a2.532,2.532,0,0,1,2.561,2.5h0a2.532,2.532,0,0,1-2.5,2.561Z" transform="translate(-436.879 -287.005)"/><path class="x" d="M488.989,305.133l-7.412.09a2.529,2.529,0,0,1-2.561-2.5h0a2.53,2.53,0,0,1,2.5-2.561l7.412-.09a2.53,2.53,0,0,1,2.561,2.5h0A2.53,2.53,0,0,1,488.989,305.133Z" transform="translate(-431.998 -287.064)"/><path class="x" d="M499.2,305.009l-7.412.09a2.53,2.53,0,0,1-2.561-2.5h0a2.53,2.53,0,0,1,2.5-2.561l7.421-.09a2.53,2.53,0,0,1,2.561,2.5h0a2.53,2.53,0,0,1-2.507,2.561Z" transform="translate(-427.115 -287.124)"/><path class="x" d="M473.736,310.582l-7.42.09a2.53,2.53,0,0,1-2.561-2.5h0a2.53,2.53,0,0,1,2.5-2.561l7.412-.09a2.529,2.529,0,0,1,2.561,2.5h0a2.53,2.53,0,0,1-2.491,2.561Z" transform="translate(-439.299 -284.463)"/><path class="x" d="M483.943,310.455l-7.412.09a2.532,2.532,0,0,1-2.561-2.5h0a2.532,2.532,0,0,1,2.5-2.561l7.412-.09a2.532,2.532,0,0,1,2.561,2.5h0a2.532,2.532,0,0,1-2.5,2.562Z" transform="translate(-434.408 -284.524)"/><path class="x" d="M494.163,310.329l-7.412.09a2.529,2.529,0,0,1-2.561-2.5h0a2.53,2.53,0,0,1,2.5-2.561l7.412-.09a2.53,2.53,0,0,1,2.561,2.5h0A2.53,2.53,0,0,1,494.163,310.329Z" transform="translate(-429.529 -284.584)"/><path class="x" d="M468.69,315.9l-7.421.09a2.53,2.53,0,0,1-2.561-2.5h0a2.53,2.53,0,0,1,2.5-2.561l7.412-.09a2.529,2.529,0,0,1,2.561,2.5h0A2.53,2.53,0,0,1,468.69,315.9Z" transform="translate(-441.708 -281.925)"/><path class="x" d="M478.9,315.775l-7.412.09a2.532,2.532,0,0,1-2.561-2.5h0a2.532,2.532,0,0,1,2.5-2.561l7.412-.09a2.532,2.532,0,0,1,2.561,2.5h0A2.532,2.532,0,0,1,478.9,315.775Z" transform="translate(-436.817 -281.984)"/><path class="x" d="M489.117,315.649l-7.412.092a2.532,2.532,0,0,1-2.561-2.5h0a2.532,2.532,0,0,1,2.5-2.561l7.412-.09a2.53,2.53,0,0,1,2.561,2.5h0A2.53,2.53,0,0,1,489.117,315.649Z" transform="translate(-431.937 -282.044)"/><path class="x" d="M499.332,315.525l-7.412.09a2.53,2.53,0,0,1-2.561-2.5h0a2.53,2.53,0,0,1,2.5-2.561l7.421-.09a2.529,2.529,0,0,1,2.561,2.5h0a2.53,2.53,0,0,1-2.507,2.561Z" transform="translate(-427.054 -282.103)"/><path class="x" d="M473.869,321.094l-7.42.09a2.53,2.53,0,0,1-2.561-2.5h0a2.53,2.53,0,0,1,2.5-2.561l7.412-.09a2.529,2.529,0,0,1,2.561,2.5h0a2.53,2.53,0,0,1-2.491,2.561Z" transform="translate(-439.25 -279.444)"/><path class="x" d="M484.071,320.971l-7.412.09a2.532,2.532,0,0,1-2.561-2.5h0A2.532,2.532,0,0,1,476.6,316l7.412-.09a2.532,2.532,0,0,1,2.561,2.5h0A2.532,2.532,0,0,1,484.071,320.971Z" transform="translate(-434.347 -279.504)"/><path class="x" d="M494.291,320.845l-7.412.09a2.529,2.529,0,0,1-2.561-2.5h0a2.53,2.53,0,0,1,2.5-2.561l7.412-.09a2.53,2.53,0,0,1,2.561,2.5h0A2.53,2.53,0,0,1,494.291,320.845Z" transform="translate(-429.468 -279.563)"/></g></g><path class="g" d="M475.363,262.743c3.638.633,7.383,1.49,10.252,3.8a23.609,23.609,0,0,1,4.541,5.5,6.066,6.066,0,0,1,1.419,3.8c-.146,1.372-1.777,2.6-2.917,1.823a5.788,5.788,0,0,0-5.272,4.56,2.639,2.639,0,0,1-2.764-.047,2.519,2.519,0,0,1,.2,1.387.873.873,0,0,1-1.051.681,1.283,1.283,0,0,1-.5-.467,52.474,52.474,0,0,0-7.218-8.069,17.571,17.571,0,0,1-2.289-2.241,12.834,12.834,0,0,1-1.366-2.356c-.661-1.376-4.332-8.28-3.271-9.5S473.823,262.476,475.363,262.743Z" transform="translate(-387.954 -125.061)"/><path class="h" d="M492.718,429.259a4.029,4.029,0,0,0-1.115-.9c-4.848-2.765-10.526-3.638-15.668-5.8-3.894-1.634-8.251-3.492-11.441-6.3-.436-.38-.77-.748-1.091-1.061a13.639,13.639,0,0,1-4.626,1.37,27.517,27.517,0,0,1-5.267.188c-2.823-.163-5.435-1.31-8.167-1.918a1.518,1.518,0,0,0-.617.157c-.773,4.275-1.653,8.542-2.057,12.864.038.074.076.146.118.218,2.037,3.379,9.779,3.117,13.209,3.53a166.037,166.037,0,0,0,17.578,1.177c3.239.045,6.6.709,9.832.57a24.521,24.521,0,0,0,8.362-1.746,2.037,2.037,0,0,0,1.269-1.018,1.336,1.336,0,0,0-.319-1.331Z" transform="translate(-398.581 -51.729)"/><path class="i" d="M493.321,427.425a17.479,17.479,0,0,1-7.188,1.775,105.05,105.05,0,0,1-16.587-.962,109.53,109.53,0,0,1-16.708-2.805,40.24,40.24,0,0,1-9.711-3.3,1.164,1.164,0,0,0-.605.515,12.525,12.525,0,0,0-.8,5.093,1.869,1.869,0,0,0,.165,1.018,1.754,1.754,0,0,0,.8.631,12.644,12.644,0,0,0,4.023,1,53.01,53.01,0,0,0,8.9.084c1.915-.108,3.83-.253,5.741-.349a33.918,33.918,0,0,1,4.778.019c1.574.145,3.127.471,4.681.755a50.742,50.742,0,0,0,13.132.873c2.245-.179,9.954-.5,9.426-4.106C493.359,427.581,493.34,427.5,493.321,427.425Z" transform="translate(-399.044 -48.248)"/><g transform="translate(64.926 364.912)"><path class="j" d="M482.541,428.334l-.367-.113c-9.254-2.871-18-5.581-25.4-11.856l.26-.307c7.343,6.222,16.049,8.919,25.263,11.778l.367.114Z" transform="translate(-456.77 -416.058)"/></g><g transform="translate(45.257 368.791)"><path class="j" d="M450.772,426.484a14.4,14.4,0,0,0-5.093-6.674,2.93,2.93,0,0,0-2.137-.717l-.084-.394a3.28,3.28,0,0,1,2.456.786,14.808,14.808,0,0,1,5.238,6.862Z" transform="translate(-443.458 -418.684)"/></g><g transform="translate(59.654 358.16)"><path class="j" d="M461.739,418.832a15.094,15.094,0,0,1-2.957-.291l-.191-.038v.093a8.969,8.969,0,0,1-2.818-.56,4.968,4.968,0,0,1-1.755-1.263,3.265,3.265,0,0,1-.818-2.027,1.583,1.583,0,0,1,.914-1.586,1.765,1.765,0,0,1,1.548.367,6.893,6.893,0,0,1,2.092,2.2c-.022-.2-.035-.393-.041-.589a4.843,4.843,0,0,1,.668-2.753,1.659,1.659,0,0,1,1.545-.892,1.337,1.337,0,0,1,.906.683,2.471,2.471,0,0,1,.278,1.037,8.051,8.051,0,0,1-.33,2.728,5.587,5.587,0,0,1-.6,1.518,2.739,2.739,0,0,1-.727.794,14.748,14.748,0,0,0,5.394-.146l.086.393A15.145,15.145,0,0,1,461.739,418.832Zm-7.247-5.333a.767.767,0,0,0-.255.041,1.2,1.2,0,0,0-.639,1.194,2.856,2.856,0,0,0,.72,1.774,4.559,4.559,0,0,0,1.615,1.164,8.569,8.569,0,0,0,2.676.525h0l.146-.048a2.066,2.066,0,0,0,1.074-.909,5.15,5.15,0,0,0,.553-1.408,7.675,7.675,0,0,0,.319-2.593,2.108,2.108,0,0,0-.227-.873.93.93,0,0,0-.626-.483c-.457-.081-.888.316-1.138.71a4.449,4.449,0,0,0-.605,2.524,11.122,11.122,0,0,0,.361,2.274c.036.131.071.265.1.4l-.391.092c-.032-.129-.066-.26-.1-.39a6.512,6.512,0,0,0-2.647-3.637,1.791,1.791,0,0,0-.937-.355Z" transform="translate(-453.194 -411.488)"/></g><path class="p" d="M541.043,262.108h-11.73l7.13-17.78h11.73Z" transform="translate(-357.21 -133.134)"/><path class="g" d="M535.325,252.5a2.765,2.765,0,0,0-1.455-.244,1.018,1.018,0,0,0-.873,1.033,1.472,1.472,0,0,0,.626.847,61.765,61.765,0,0,0,6.788,4.582,23.448,23.448,0,0,0-7.474-1.823c-.482-.035-1.055-.012-1.31.393a.986.986,0,0,0-.09.748c.214.93,1.173,1.455,2.037,1.862q3.427,1.624,6.849,3.252a30.826,30.826,0,0,0-8.2-1.47,1.483,1.483,0,0,0-1.1.255,1.03,1.03,0,0,0-.015,1.324,2.848,2.848,0,0,0,1.186.807,36.867,36.867,0,0,0,8.135,2.561,13.436,13.436,0,0,1-4.074-.336,4.884,4.884,0,0,0-3.891.751c.145.672.943.934,1.618,1.055a44.532,44.532,0,0,0,5.736.656,4.655,4.655,0,0,0,1.924-.191c1.488-.582,2.025-2.42,2.059-4.017a17.132,17.132,0,0,0-1.568-7.793C541.04,254.611,537.488,253.314,535.325,252.5Z" transform="translate(-356.446 -129.355)"/></g><g transform="translate(1117.82 4360.653)"><path class="c" d="M340.921,143.342v-4.705H322.635v4.705a4.166,4.166,0,0,1-4.166,4.166h0v41.672a8.876,8.876,0,0,0,8.875,8.876h8.876a8.876,8.876,0,0,0,8.876-8.876V147.507h0a4.166,4.166,0,0,1-4.174-4.166Z" transform="translate(-318.469 -134.872)"/><rect class="d" width="23.389" height="5.376" transform="translate(1.609 0)"/><rect class="d" width="21.776" height="31.454" transform="translate(4.836 16.667)"/></g><g transform="translate(1168.445 4360.653)"><path class="c" d="M377.876,143.342v-4.705H359.6v4.705a4.166,4.166,0,0,1-4.166,4.166h0v41.672a8.876,8.876,0,0,0,8.876,8.876h8.876a8.876,8.876,0,0,0,8.876-8.876V147.507h0a4.166,4.166,0,0,1-4.188-4.166Z" transform="translate(-355.437 -134.872)"/><rect class="d" width="23.389" height="5.376" transform="translate(1.603 0)"/><rect class="d" width="21.776" height="31.454" transform="translate(4.829 16.667)"/></g><g transform="translate(1117.82 4447.167)"><path class="c" d="M340.921,206.518v-4.707H322.635v4.707a4.166,4.166,0,0,1-4.166,4.166h0v41.67a8.876,8.876,0,0,0,8.875,8.876h8.876a8.876,8.876,0,0,0,8.876-8.876v-41.67h0a4.166,4.166,0,0,1-4.174-4.166Z" transform="translate(-318.469 -198.048)"/><rect class="d" width="23.389" height="5.376" transform="translate(1.609 0)"/><rect class="d" width="21.776" height="31.454" transform="translate(4.836 16.667)"/></g><g transform="translate(1168.445 4447.167)"><path class="c" d="M377.876,206.518v-4.707H359.6v4.707a4.166,4.166,0,0,1-4.166,4.166h0v41.67a8.875,8.875,0,0,0,8.876,8.876h8.876a8.876,8.876,0,0,0,8.876-8.876v-41.67h0a4.166,4.166,0,0,1-4.188-4.166Z" transform="translate(-355.437 -198.048)"/><rect class="d" width="23.389" height="5.376" transform="translate(1.603 0)"/><rect class="d" width="21.776" height="31.454" transform="translate(4.829 16.667)"/></g><g transform="translate(1117.82 4533.681)"><path class="c" d="M340.921,269.694v-4.707H322.635v4.707a4.166,4.166,0,0,1-4.166,4.166h0v41.67a8.876,8.876,0,0,0,8.875,8.876h8.876a8.876,8.876,0,0,0,8.876-8.876V273.86h0a4.166,4.166,0,0,1-4.174-4.166Z" transform="translate(-318.469 -261.223)"/><rect class="d" width="23.389" height="5.376" transform="translate(1.609 0)"/><rect class="d" width="21.776" height="31.454" transform="translate(4.836 16.667)"/></g><g transform="translate(1168.445 4533.681)"><path class="c" d="M377.876,269.694v-4.707H359.6v4.707a4.166,4.166,0,0,1-4.166,4.166h0v41.67a8.875,8.875,0,0,0,8.876,8.876h8.876a8.876,8.876,0,0,0,8.876-8.876V273.86h0a4.166,4.166,0,0,1-4.188-4.166Z" transform="translate(-355.437 -261.223)"/><rect class="d" width="23.389" height="5.376" transform="translate(1.603 0)"/><rect class="d" width="21.776" height="31.454" transform="translate(4.829 16.667)"/></g><g transform="translate(1117.82 4626.551)"><path class="c" d="M340.921,337.51V332.8H322.635v4.706a4.166,4.166,0,0,1-4.166,4.166h0v41.67a8.876,8.876,0,0,0,8.876,8.876h8.876a8.876,8.876,0,0,0,8.876-8.876V341.676h0a4.166,4.166,0,0,1-4.174-4.166Z" transform="translate(-318.469 -329.04)"/><rect class="d" width="23.389" height="5.376" transform="translate(1.609)"/><rect class="d" width="21.776" height="31.454" transform="translate(4.836 16.669)"/></g><g transform="translate(1168.445 4626.551)"><path class="c" d="M377.876,337.51V332.8H359.6v4.706a4.166,4.166,0,0,1-4.166,4.166h0v41.67a8.875,8.875,0,0,0,8.876,8.876h8.876a8.876,8.876,0,0,0,8.876-8.876V341.676h0a4.166,4.166,0,0,1-4.188-4.166Z" transform="translate(-355.437 -329.04)"/><rect class="d" width="23.389" height="5.376" transform="translate(1.603)"/><rect class="d" width="21.776" height="31.454" transform="translate(4.829 16.669)"/></g><g transform="translate(1026.539 4386.987)"><g transform="translate(-0.001 0)"><path class="y" d="M63.54,60.026H60.019v3.521H63.54Zm-.728,2.8H60.732V60.746h2.081Z" transform="translate(-58.577 -58.578)"/><path class="y" d="M118.344,118.351h.727v.728h-.727Z" transform="translate(-115.502 -115.502)"/><path class="y" d="M60.019,308.887H63.54v-3.521H60.019Zm.728-2.8h2.081v2.081H60.747Z" transform="translate(-58.577 -298.025)"/><path class="y" d="M329.073,320.366h-.727v2.442h-.706v-.535h-.728v.535h-.873v.728h3.026Z" transform="translate(-318.217 -312.666)"/><path class="y" d="M118.344,363.69h.727v.728h-.727Z" transform="translate(-115.502 -354.95)"/><path class="y" d="M308.909,60.026h-3.521v3.521h3.521Zm-.728,2.8H306.1V60.746h2.081Z" transform="translate(-298.055 -58.578)"/><path class="y" d="M363.714,118.351h.728v.728h-.728Z" transform="translate(-354.98 -115.502)"/><path class="y" d="M120.021,241.021H122.1v.728h-2.081Z" transform="translate(-117.139 -235.226)"/><path class="y" d="M60.018,241.021h.728v.728h-.728Z" transform="translate(-58.576 -235.226)"/><path class="y" d="M236.672,241.021h2.682v.728h-2.682Z" transform="translate(-230.989 -235.226)"/><path class="y" d="M380.1,242.205v-1.184h-1.771v.727h1.049v.464Z" transform="translate(-369.24 -235.226)"/><path class="y" d="M241.04,120.029h.727v2.081h-.727Z" transform="translate(-235.252 -117.139)"/><path class="y" d="M241.04,60.025h.727v.727h-.727Z" transform="translate(-235.252 -58.577)"/><path class="y" d="M241.762,307.453h.535v-.727h-.535v-1.36h-.727v3.521h1.321v-.728h-.6Z" transform="translate(-235.254 -298.025)"/><path class="y" d="M308.9,306.624h.727v-.535h.582v-.728h-1.891v.728h.582Z" transform="translate(-300.915 -298.028)"/><path class="y" d="M407.007.022V.75h1.8V2.544h.727V.022Z" transform="translate(-397.232 -0.015)"/><path class="y" d="M.728.745h1.8V.017H0V2.546H.728Z" transform="translate(0 -0.017)"/><path class="y" d="M408.808,408.814h-1.8v.728h2.523V407.02H408.8Z" transform="translate(-397.232 -397.232)"/><path class="y" d="M.728,407.015H0v2.522H2.523v-.728H.728Z" transform="translate(0 -397.234)"/></g><g transform="translate(48.014 0)"><path class="y" d="M63.54,60.026H60.019v3.521H63.54Zm-.728,2.8H60.732V60.746h2.081Z" transform="translate(-58.577 -58.578)"/><path class="y" d="M118.344,118.351h.727v.728h-.727Z" transform="translate(-115.502 -115.502)"/><path class="y" d="M60.019,308.887H63.54v-3.521H60.019Zm.728-2.8h2.081v2.081H60.747Z" transform="translate(-58.577 -298.025)"/><path class="y" d="M329.073,320.366h-.727v2.442h-.706v-.535h-.728v.535h-.873v.728h3.026Z" transform="translate(-318.217 -312.666)"/><path class="y" d="M118.344,363.69h.727v.728h-.727Z" transform="translate(-115.502 -354.95)"/><path class="y" d="M308.909,60.026h-3.521v3.521h3.521Zm-.728,2.8H306.1V60.746h2.081Z" transform="translate(-298.055 -58.578)"/><path class="y" d="M363.714,118.351h.728v.728h-.728Z" transform="translate(-354.98 -115.502)"/><path class="y" d="M120.021,241.021H122.1v.728h-2.081Z" transform="translate(-117.139 -235.226)"/><path class="y" d="M60.018,241.021h.728v.728h-.728Z" transform="translate(-58.576 -235.226)"/><path class="y" d="M236.672,241.021h2.682v.728h-2.682Z" transform="translate(-230.989 -235.226)"/><path class="y" d="M380.1,242.205v-1.184h-1.771v.727h1.049v.464Z" transform="translate(-369.24 -235.226)"/><path class="y" d="M241.04,120.029h.727v2.081h-.727Z" transform="translate(-235.252 -117.139)"/><path class="y" d="M241.04,60.025h.727v.727h-.727Z" transform="translate(-235.252 -58.577)"/><path class="y" d="M241.762,307.453h.535v-.727h-.535v-1.36h-.727v3.521h1.321v-.728h-.6Z" transform="translate(-235.254 -298.025)"/><path class="y" d="M308.9,306.624h.727v-.535h.582v-.728h-1.891v.728h.582Z" transform="translate(-300.915 -298.028)"/><path class="y" d="M407.007.022V.75h1.8V2.544h.727V.022Z" transform="translate(-397.232 -0.015)"/><path class="y" d="M.728.745h1.8V.017H0V2.546H.728Z" transform="translate(0 -0.017)"/><path class="y" d="M408.808,408.814h-1.8v.728h2.523V407.02H408.8Z" transform="translate(-397.232 -397.232)"/><path class="y" d="M.728,407.015H0v2.522H2.523v-.728H.728Z" transform="translate(0 -397.234)"/></g><g transform="translate(100.395 0)"><path class="y" d="M63.54,60.026H60.019v3.521H63.54Zm-.728,2.8H60.732V60.746h2.081Z" transform="translate(-58.577 -58.578)"/><path class="y" d="M118.344,118.351h.727v.728h-.727Z" transform="translate(-115.502 -115.502)"/><path class="y" d="M60.019,308.887H63.54v-3.521H60.019Zm.728-2.8h2.081v2.081H60.747Z" transform="translate(-58.577 -298.025)"/><path class="y" d="M329.073,320.366h-.727v2.442h-.706v-.535h-.728v.535h-.873v.728h3.026Z" transform="translate(-318.217 -312.666)"/><path class="y" d="M118.344,363.69h.727v.728h-.727Z" transform="translate(-115.502 -354.95)"/><path class="y" d="M308.909,60.026h-3.521v3.521h3.521Zm-.728,2.8H306.1V60.746h2.081Z" transform="translate(-298.055 -58.578)"/><path class="y" d="M363.714,118.351h.728v.728h-.728Z" transform="translate(-354.98 -115.502)"/><path class="y" d="M120.021,241.021H122.1v.728h-2.081Z" transform="translate(-117.139 -235.226)"/><path class="y" d="M60.018,241.021h.728v.728h-.728Z" transform="translate(-58.576 -235.226)"/><path class="y" d="M236.672,241.021h2.682v.728h-2.682Z" transform="translate(-230.989 -235.226)"/><path class="y" d="M380.1,242.205v-1.184h-1.771v.727h1.049v.464Z" transform="translate(-369.24 -235.226)"/><path class="y" d="M241.04,120.029h.727v2.081h-.727Z" transform="translate(-235.252 -117.139)"/><path class="y" d="M241.04,60.025h.727v.727h-.727Z" transform="translate(-235.252 -58.577)"/><path class="y" d="M241.762,307.453h.535v-.727h-.535v-1.36h-.727v3.521h1.321v-.728h-.6Z" transform="translate(-235.254 -298.025)"/><path class="y" d="M308.9,306.624h.727v-.535h.582v-.728h-1.891v.728h.582Z" transform="translate(-300.915 -298.028)"/><path class="y" d="M407.007.022V.75h1.8V2.544h.727V.022Z" transform="translate(-397.232 -0.015)"/><path class="y" d="M.728.745h1.8V.017H0V2.546H.728Z" transform="translate(0 -0.017)"/><path class="y" d="M408.808,408.814h-1.8v.728h2.523V407.02H408.8Z" transform="translate(-397.232 -397.232)"/><path class="y" d="M.728,407.015H0v2.522H2.523v-.728H.728Z" transform="translate(0 -397.234)"/></g><g transform="translate(151.32 0)"><path class="y" d="M63.54,60.026H60.019v3.521H63.54Zm-.728,2.8H60.732V60.746h2.081Z" transform="translate(-58.577 -58.578)"/><path class="y" d="M118.344,118.351h.727v.728h-.727Z" transform="translate(-115.502 -115.502)"/><path class="y" d="M60.019,308.887H63.54v-3.521H60.019Zm.728-2.8h2.081v2.081H60.747Z" transform="translate(-58.577 -298.025)"/><path class="y" d="M329.073,320.366h-.727v2.442h-.706v-.535h-.728v.535h-.873v.728h3.026Z" transform="translate(-318.217 -312.666)"/><path class="y" d="M118.344,363.69h.727v.728h-.727Z" transform="translate(-115.502 -354.95)"/><path class="y" d="M308.909,60.026h-3.521v3.521h3.521Zm-.728,2.8H306.1V60.746h2.081Z" transform="translate(-298.055 -58.578)"/><path class="y" d="M363.714,118.351h.728v.728h-.728Z" transform="translate(-354.98 -115.502)"/><path class="y" d="M120.021,241.021H122.1v.728h-2.081Z" transform="translate(-117.139 -235.226)"/><path class="y" d="M60.018,241.021h.728v.728h-.728Z" transform="translate(-58.576 -235.226)"/><path class="y" d="M236.672,241.021h2.682v.728h-2.682Z" transform="translate(-230.989 -235.226)"/><path class="y" d="M380.1,242.205v-1.184h-1.771v.727h1.049v.464Z" transform="translate(-369.24 -235.226)"/><path class="y" d="M241.04,120.029h.727v2.081h-.727Z" transform="translate(-235.252 -117.139)"/><path class="y" d="M241.04,60.025h.727v.727h-.727Z" transform="translate(-235.252 -58.577)"/><path class="y" d="M241.762,307.453h.535v-.727h-.535v-1.36h-.727v3.521h1.321v-.728h-.6Z" transform="translate(-235.254 -298.025)"/><path class="y" d="M308.9,306.624h.727v-.535h.582v-.728h-1.891v.728h.582Z" transform="translate(-300.915 -298.028)"/><path class="y" d="M407.007.022V.75h1.8V2.544h.727V.022Z" transform="translate(-397.232 -0.015)"/><path class="y" d="M.728.745h1.8V.017H0V2.546H.728Z" transform="translate(0 -0.017)"/><path class="y" d="M408.808,408.814h-1.8v.728h2.523V407.02H408.8Z" transform="translate(-397.232 -397.232)"/><path class="y" d="M.728,407.015H0v2.522H2.523v-.728H.728Z" transform="translate(0 -397.234)"/></g></g><g transform="translate(1026.539 4474.287)"><g transform="translate(-0.001 0)"><path class="y" d="M63.54,60.026H60.019v3.521H63.54Zm-.728,2.8H60.732V60.746h2.081Z" transform="translate(-58.577 -58.578)"/><path class="y" d="M118.344,118.351h.727v.728h-.727Z" transform="translate(-115.502 -115.502)"/><path class="y" d="M60.019,308.887H63.54v-3.521H60.019Zm.728-2.8h2.081v2.081H60.747Z" transform="translate(-58.577 -298.025)"/><path class="y" d="M329.073,320.366h-.727v2.442h-.706v-.535h-.728v.535h-.873v.728h3.026Z" transform="translate(-318.217 -312.666)"/><path class="y" d="M118.344,363.69h.727v.728h-.727Z" transform="translate(-115.502 -354.95)"/><path class="y" d="M308.909,60.026h-3.521v3.521h3.521Zm-.728,2.8H306.1V60.746h2.081Z" transform="translate(-298.055 -58.578)"/><path class="y" d="M363.714,118.351h.728v.728h-.728Z" transform="translate(-354.98 -115.502)"/><path class="y" d="M120.021,241.021H122.1v.728h-2.081Z" transform="translate(-117.139 -235.226)"/><path class="y" d="M60.018,241.021h.728v.728h-.728Z" transform="translate(-58.576 -235.226)"/><path class="y" d="M236.672,241.021h2.682v.728h-2.682Z" transform="translate(-230.989 -235.226)"/><path class="y" d="M380.1,242.205v-1.184h-1.771v.727h1.049v.464Z" transform="translate(-369.24 -235.226)"/><path class="y" d="M241.04,120.029h.727v2.081h-.727Z" transform="translate(-235.252 -117.139)"/><path class="y" d="M241.04,60.025h.727v.727h-.727Z" transform="translate(-235.252 -58.577)"/><path class="y" d="M241.762,307.453h.535v-.727h-.535v-1.36h-.727v3.521h1.321v-.728h-.6Z" transform="translate(-235.254 -298.025)"/><path class="y" d="M308.9,306.624h.727v-.535h.582v-.728h-1.891v.728h.582Z" transform="translate(-300.915 -298.028)"/><path class="y" d="M407.007.022V.75h1.8V2.544h.727V.022Z" transform="translate(-397.232 -0.015)"/><path class="y" d="M.728.745h1.8V.017H0V2.546H.728Z" transform="translate(0 -0.017)"/><path class="y" d="M408.808,408.814h-1.8v.728h2.523V407.02H408.8Z" transform="translate(-397.232 -397.232)"/><path class="y" d="M.728,407.015H0v2.522H2.523v-.728H.728Z" transform="translate(0 -397.234)"/></g><g transform="translate(48.014 0)"><path class="y" d="M63.54,60.026H60.019v3.521H63.54Zm-.728,2.8H60.732V60.746h2.081Z" transform="translate(-58.577 -58.578)"/><path class="y" d="M118.344,118.351h.727v.728h-.727Z" transform="translate(-115.502 -115.502)"/><path class="y" d="M60.019,308.887H63.54v-3.521H60.019Zm.728-2.8h2.081v2.081H60.747Z" transform="translate(-58.577 -298.025)"/><path class="y" d="M329.073,320.366h-.727v2.442h-.706v-.535h-.728v.535h-.873v.728h3.026Z" transform="translate(-318.217 -312.666)"/><path class="y" d="M118.344,363.69h.727v.728h-.727Z" transform="translate(-115.502 -354.95)"/><path class="y" d="M308.909,60.026h-3.521v3.521h3.521Zm-.728,2.8H306.1V60.746h2.081Z" transform="translate(-298.055 -58.578)"/><path class="y" d="M363.714,118.351h.728v.728h-.728Z" transform="translate(-354.98 -115.502)"/><path class="y" d="M120.021,241.021H122.1v.728h-2.081Z" transform="translate(-117.139 -235.226)"/><path class="y" d="M60.018,241.021h.728v.728h-.728Z" transform="translate(-58.576 -235.226)"/><path class="y" d="M236.672,241.021h2.682v.728h-2.682Z" transform="translate(-230.989 -235.226)"/><path class="y" d="M380.1,242.205v-1.184h-1.771v.727h1.049v.464Z" transform="translate(-369.24 -235.226)"/><path class="y" d="M241.04,120.029h.727v2.081h-.727Z" transform="translate(-235.252 -117.139)"/><path class="y" d="M241.04,60.025h.727v.727h-.727Z" transform="translate(-235.252 -58.577)"/><path class="y" d="M241.762,307.453h.535v-.727h-.535v-1.36h-.727v3.521h1.321v-.728h-.6Z" transform="translate(-235.254 -298.025)"/><path class="y" d="M308.9,306.624h.727v-.535h.582v-.728h-1.891v.728h.582Z" transform="translate(-300.915 -298.028)"/><path class="y" d="M407.007.022V.75h1.8V2.544h.727V.022Z" transform="translate(-397.232 -0.015)"/><path class="y" d="M.728.745h1.8V.017H0V2.546H.728Z" transform="translate(0 -0.017)"/><path class="y" d="M408.808,408.814h-1.8v.728h2.523V407.02H408.8Z" transform="translate(-397.232 -397.232)"/><path class="y" d="M.728,407.015H0v2.522H2.523v-.728H.728Z" transform="translate(0 -397.234)"/></g><g transform="translate(100.395 0)"><path class="y" d="M63.54,60.026H60.019v3.521H63.54Zm-.728,2.8H60.732V60.746h2.081Z" transform="translate(-58.577 -58.578)"/><path class="y" d="M118.344,118.351h.727v.728h-.727Z" transform="translate(-115.502 -115.502)"/><path class="y" d="M60.019,308.887H63.54v-3.521H60.019Zm.728-2.8h2.081v2.081H60.747Z" transform="translate(-58.577 -298.025)"/><path class="y" d="M329.073,320.366h-.727v2.442h-.706v-.535h-.728v.535h-.873v.728h3.026Z" transform="translate(-318.217 -312.666)"/><path class="y" d="M118.344,363.69h.727v.728h-.727Z" transform="translate(-115.502 -354.95)"/><path class="y" d="M308.909,60.026h-3.521v3.521h3.521Zm-.728,2.8H306.1V60.746h2.081Z" transform="translate(-298.055 -58.578)"/><path class="y" d="M363.714,118.351h.728v.728h-.728Z" transform="translate(-354.98 -115.502)"/><path class="y" d="M120.021,241.021H122.1v.728h-2.081Z" transform="translate(-117.139 -235.226)"/><path class="y" d="M60.018,241.021h.728v.728h-.728Z" transform="translate(-58.576 -235.226)"/><path class="y" d="M236.672,241.021h2.682v.728h-2.682Z" transform="translate(-230.989 -235.226)"/><path class="y" d="M380.1,242.205v-1.184h-1.771v.727h1.049v.464Z" transform="translate(-369.24 -235.226)"/><path class="y" d="M241.04,120.029h.727v2.081h-.727Z" transform="translate(-235.252 -117.139)"/><path class="y" d="M241.04,60.025h.727v.727h-.727Z" transform="translate(-235.252 -58.577)"/><path class="y" d="M241.762,307.453h.535v-.727h-.535v-1.36h-.727v3.521h1.321v-.728h-.6Z" transform="translate(-235.254 -298.025)"/><path class="y" d="M308.9,306.624h.727v-.535h.582v-.728h-1.891v.728h.582Z" transform="translate(-300.915 -298.028)"/><path class="y" d="M407.007.022V.75h1.8V2.544h.727V.022Z" transform="translate(-397.232 -0.015)"/><path class="y" d="M.728.745h1.8V.017H0V2.546H.728Z" transform="translate(0 -0.017)"/><path class="y" d="M408.808,408.814h-1.8v.728h2.523V407.02H408.8Z" transform="translate(-397.232 -397.232)"/><path class="y" d="M.728,407.015H0v2.522H2.523v-.728H.728Z" transform="translate(0 -397.234)"/></g><g transform="translate(151.32 0)"><path class="y" d="M63.54,60.026H60.019v3.521H63.54Zm-.728,2.8H60.732V60.746h2.081Z" transform="translate(-58.577 -58.578)"/><path class="y" d="M118.344,118.351h.727v.728h-.727Z" transform="translate(-115.502 -115.502)"/><path class="y" d="M60.019,308.887H63.54v-3.521H60.019Zm.728-2.8h2.081v2.081H60.747Z" transform="translate(-58.577 -298.025)"/><path class="y" d="M329.073,320.366h-.727v2.442h-.706v-.535h-.728v.535h-.873v.728h3.026Z" transform="translate(-318.217 -312.666)"/><path class="y" d="M118.344,363.69h.727v.728h-.727Z" transform="translate(-115.502 -354.95)"/><path class="y" d="M308.909,60.026h-3.521v3.521h3.521Zm-.728,2.8H306.1V60.746h2.081Z" transform="translate(-298.055 -58.578)"/><path class="y" d="M363.714,118.351h.728v.728h-.728Z" transform="translate(-354.98 -115.502)"/><path class="y" d="M120.021,241.021H122.1v.728h-2.081Z" transform="translate(-117.139 -235.226)"/><path class="y" d="M60.018,241.021h.728v.728h-.728Z" transform="translate(-58.576 -235.226)"/><path class="y" d="M236.672,241.021h2.682v.728h-2.682Z" transform="translate(-230.989 -235.226)"/><path class="y" d="M380.1,242.205v-1.184h-1.771v.727h1.049v.464Z" transform="translate(-369.24 -235.226)"/><path class="y" d="M241.04,120.029h.727v2.081h-.727Z" transform="translate(-235.252 -117.139)"/><path class="y" d="M241.04,60.025h.727v.727h-.727Z" transform="translate(-235.252 -58.577)"/><path class="y" d="M241.762,307.453h.535v-.727h-.535v-1.36h-.727v3.521h1.321v-.728h-.6Z" transform="translate(-235.254 -298.025)"/><path class="y" d="M308.9,306.624h.727v-.535h.582v-.728h-1.891v.728h.582Z" transform="translate(-300.915 -298.028)"/><path class="y" d="M407.007.022V.75h1.8V2.544h.727V.022Z" transform="translate(-397.232 -0.015)"/><path class="y" d="M.728.745h1.8V.017H0V2.546H.728Z" transform="translate(0 -0.017)"/><path class="y" d="M408.808,408.814h-1.8v.728h2.523V407.02H408.8Z" transform="translate(-397.232 -397.232)"/><path class="y" d="M.728,407.015H0v2.522H2.523v-.728H.728Z" transform="translate(0 -397.234)"/></g></g><g transform="translate(1026.539 4561.588)"><g transform="translate(-0.001 0)"><path class="y" d="M63.54,60.026H60.019v3.521H63.54Zm-.728,2.8H60.732V60.746h2.081Z" transform="translate(-58.577 -58.578)"/><path class="y" d="M118.344,118.351h.727v.728h-.727Z" transform="translate(-115.502 -115.502)"/><path class="y" d="M60.019,308.887H63.54v-3.521H60.019Zm.728-2.8h2.081v2.081H60.747Z" transform="translate(-58.577 -298.025)"/><path class="y" d="M329.073,320.366h-.727v2.442h-.706v-.535h-.728v.535h-.873v.728h3.026Z" transform="translate(-318.217 -312.666)"/><path class="y" d="M118.344,363.69h.727v.728h-.727Z" transform="translate(-115.502 -354.95)"/><path class="y" d="M308.909,60.026h-3.521v3.521h3.521Zm-.728,2.8H306.1V60.746h2.081Z" transform="translate(-298.055 -58.578)"/><path class="y" d="M363.714,118.351h.728v.728h-.728Z" transform="translate(-354.98 -115.502)"/><path class="y" d="M120.021,241.021H122.1v.728h-2.081Z" transform="translate(-117.139 -235.226)"/><path class="y" d="M60.018,241.021h.728v.728h-.728Z" transform="translate(-58.576 -235.226)"/><path class="y" d="M236.672,241.021h2.682v.728h-2.682Z" transform="translate(-230.989 -235.226)"/><path class="y" d="M380.1,242.205v-1.184h-1.771v.727h1.049v.464Z" transform="translate(-369.24 -235.226)"/><path class="y" d="M241.04,120.029h.727v2.081h-.727Z" transform="translate(-235.252 -117.139)"/><path class="y" d="M241.04,60.025h.727v.727h-.727Z" transform="translate(-235.252 -58.577)"/><path class="y" d="M241.762,307.453h.535v-.727h-.535v-1.36h-.727v3.521h1.321v-.728h-.6Z" transform="translate(-235.254 -298.025)"/><path class="y" d="M308.9,306.624h.727v-.535h.582v-.728h-1.891v.728h.582Z" transform="translate(-300.915 -298.028)"/><path class="y" d="M407.007.022V.75h1.8V2.544h.727V.022Z" transform="translate(-397.232 -0.015)"/><path class="y" d="M.728.745h1.8V.017H0V2.546H.728Z" transform="translate(0 -0.017)"/><path class="y" d="M408.808,408.814h-1.8v.728h2.523V407.02H408.8Z" transform="translate(-397.232 -397.232)"/><path class="y" d="M.728,407.015H0v2.522H2.523v-.728H.728Z" transform="translate(0 -397.234)"/></g><g transform="translate(48.014 0)"><path class="y" d="M63.54,60.026H60.019v3.521H63.54Zm-.728,2.8H60.732V60.746h2.081Z" transform="translate(-58.577 -58.578)"/><path class="y" d="M118.344,118.351h.727v.728h-.727Z" transform="translate(-115.502 -115.502)"/><path class="y" d="M60.019,308.887H63.54v-3.521H60.019Zm.728-2.8h2.081v2.081H60.747Z" transform="translate(-58.577 -298.025)"/><path class="y" d="M329.073,320.366h-.727v2.442h-.706v-.535h-.728v.535h-.873v.728h3.026Z" transform="translate(-318.217 -312.666)"/><path class="y" d="M118.344,363.69h.727v.728h-.727Z" transform="translate(-115.502 -354.95)"/><path class="y" d="M308.909,60.026h-3.521v3.521h3.521Zm-.728,2.8H306.1V60.746h2.081Z" transform="translate(-298.055 -58.578)"/><path class="y" d="M363.714,118.351h.728v.728h-.728Z" transform="translate(-354.98 -115.502)"/><path class="y" d="M120.021,241.021H122.1v.728h-2.081Z" transform="translate(-117.139 -235.226)"/><path class="y" d="M60.018,241.021h.728v.728h-.728Z" transform="translate(-58.576 -235.226)"/><path class="y" d="M236.672,241.021h2.682v.728h-2.682Z" transform="translate(-230.989 -235.226)"/><path class="y" d="M380.1,242.205v-1.184h-1.771v.727h1.049v.464Z" transform="translate(-369.24 -235.226)"/><path class="y" d="M241.04,120.029h.727v2.081h-.727Z" transform="translate(-235.252 -117.139)"/><path class="y" d="M241.04,60.025h.727v.727h-.727Z" transform="translate(-235.252 -58.577)"/><path class="y" d="M241.762,307.453h.535v-.727h-.535v-1.36h-.727v3.521h1.321v-.728h-.6Z" transform="translate(-235.254 -298.025)"/><path class="y" d="M308.9,306.624h.727v-.535h.582v-.728h-1.891v.728h.582Z" transform="translate(-300.915 -298.028)"/><path class="y" d="M407.007.022V.75h1.8V2.544h.727V.022Z" transform="translate(-397.232 -0.015)"/><path class="y" d="M.728.745h1.8V.017H0V2.546H.728Z" transform="translate(0 -0.017)"/><path class="y" d="M408.808,408.814h-1.8v.728h2.523V407.02H408.8Z" transform="translate(-397.232 -397.232)"/><path class="y" d="M.728,407.015H0v2.522H2.523v-.728H.728Z" transform="translate(0 -397.234)"/></g><g transform="translate(100.395 0)"><path class="y" d="M63.54,60.026H60.019v3.521H63.54Zm-.728,2.8H60.732V60.746h2.081Z" transform="translate(-58.577 -58.578)"/><path class="y" d="M118.344,118.351h.727v.728h-.727Z" transform="translate(-115.502 -115.502)"/><path class="y" d="M60.019,308.887H63.54v-3.521H60.019Zm.728-2.8h2.081v2.081H60.747Z" transform="translate(-58.577 -298.025)"/><path class="y" d="M329.073,320.366h-.727v2.442h-.706v-.535h-.728v.535h-.873v.728h3.026Z" transform="translate(-318.217 -312.666)"/><path class="y" d="M118.344,363.69h.727v.728h-.727Z" transform="translate(-115.502 -354.95)"/><path class="y" d="M308.909,60.026h-3.521v3.521h3.521Zm-.728,2.8H306.1V60.746h2.081Z" transform="translate(-298.055 -58.578)"/><path class="y" d="M363.714,118.351h.728v.728h-.728Z" transform="translate(-354.98 -115.502)"/><path class="y" d="M120.021,241.021H122.1v.728h-2.081Z" transform="translate(-117.139 -235.226)"/><path class="y" d="M60.018,241.021h.728v.728h-.728Z" transform="translate(-58.576 -235.226)"/><path class="y" d="M236.672,241.021h2.682v.728h-2.682Z" transform="translate(-230.989 -235.226)"/><path class="y" d="M380.1,242.205v-1.184h-1.771v.727h1.049v.464Z" transform="translate(-369.24 -235.226)"/><path class="y" d="M241.04,120.029h.727v2.081h-.727Z" transform="translate(-235.252 -117.139)"/><path class="y" d="M241.04,60.025h.727v.727h-.727Z" transform="translate(-235.252 -58.577)"/><path class="y" d="M241.762,307.453h.535v-.727h-.535v-1.36h-.727v3.521h1.321v-.728h-.6Z" transform="translate(-235.254 -298.025)"/><path class="y" d="M308.9,306.624h.727v-.535h.582v-.728h-1.891v.728h.582Z" transform="translate(-300.915 -298.028)"/><path class="y" d="M407.007.022V.75h1.8V2.544h.727V.022Z" transform="translate(-397.232 -0.015)"/><path class="y" d="M.728.745h1.8V.017H0V2.546H.728Z" transform="translate(0 -0.017)"/><path class="y" d="M408.808,408.814h-1.8v.728h2.523V407.02H408.8Z" transform="translate(-397.232 -397.232)"/><path class="y" d="M.728,407.015H0v2.522H2.523v-.728H.728Z" transform="translate(0 -397.234)"/></g><g transform="translate(151.32 0)"><path class="y" d="M63.54,60.026H60.019v3.521H63.54Zm-.728,2.8H60.732V60.746h2.081Z" transform="translate(-58.577 -58.578)"/><path class="y" d="M118.344,118.351h.727v.728h-.727Z" transform="translate(-115.502 -115.502)"/><path class="y" d="M60.019,308.887H63.54v-3.521H60.019Zm.728-2.8h2.081v2.081H60.747Z" transform="translate(-58.577 -298.025)"/><path class="y" d="M329.073,320.366h-.727v2.442h-.706v-.535h-.728v.535h-.873v.728h3.026Z" transform="translate(-318.217 -312.666)"/><path class="y" d="M118.344,363.69h.727v.728h-.727Z" transform="translate(-115.502 -354.95)"/><path class="y" d="M308.909,60.026h-3.521v3.521h3.521Zm-.728,2.8H306.1V60.746h2.081Z" transform="translate(-298.055 -58.578)"/><path class="y" d="M363.714,118.351h.728v.728h-.728Z" transform="translate(-354.98 -115.502)"/><path class="y" d="M120.021,241.021H122.1v.728h-2.081Z" transform="translate(-117.139 -235.226)"/><path class="y" d="M60.018,241.021h.728v.728h-.728Z" transform="translate(-58.576 -235.226)"/><path class="y" d="M236.672,241.021h2.682v.728h-2.682Z" transform="translate(-230.989 -235.226)"/><path class="y" d="M380.1,242.205v-1.184h-1.771v.727h1.049v.464Z" transform="translate(-369.24 -235.226)"/><path class="y" d="M241.04,120.029h.727v2.081h-.727Z" transform="translate(-235.252 -117.139)"/><path class="y" d="M241.04,60.025h.727v.727h-.727Z" transform="translate(-235.252 -58.577)"/><path class="y" d="M241.762,307.453h.535v-.727h-.535v-1.36h-.727v3.521h1.321v-.728h-.6Z" transform="translate(-235.254 -298.025)"/><path class="y" d="M308.9,306.624h.727v-.535h.582v-.728h-1.891v.728h.582Z" transform="translate(-300.915 -298.028)"/><path class="y" d="M407.007.022V.75h1.8V2.544h.727V.022Z" transform="translate(-397.232 -0.015)"/><path class="y" d="M.728.745h1.8V.017H0V2.546H.728Z" transform="translate(0 -0.017)"/><path class="y" d="M408.808,408.814h-1.8v.728h2.523V407.02H408.8Z" transform="translate(-397.232 -397.232)"/><path class="y" d="M.728,407.015H0v2.522H2.523v-.728H.728Z" transform="translate(0 -397.234)"/></g></g><g transform="translate(1026.539 4651.8)"><g transform="translate(-0.001 0)"><path class="y" d="M63.54,60.026H60.019v3.521H63.54Zm-.728,2.8H60.732V60.746h2.081Z" transform="translate(-58.577 -58.578)"/><path class="y" d="M118.344,118.351h.727v.728h-.727Z" transform="translate(-115.502 -115.502)"/><path class="y" d="M60.019,308.887H63.54v-3.521H60.019Zm.728-2.8h2.081v2.081H60.747Z" transform="translate(-58.577 -298.025)"/><path class="y" d="M329.073,320.366h-.727v2.442h-.706v-.535h-.728v.535h-.873v.728h3.026Z" transform="translate(-318.217 -312.666)"/><path class="y" d="M118.344,363.69h.727v.728h-.727Z" transform="translate(-115.502 -354.95)"/><path class="y" d="M308.909,60.026h-3.521v3.521h3.521Zm-.728,2.8H306.1V60.746h2.081Z" transform="translate(-298.055 -58.578)"/><path class="y" d="M363.714,118.351h.728v.728h-.728Z" transform="translate(-354.98 -115.502)"/><path class="y" d="M120.021,241.021H122.1v.728h-2.081Z" transform="translate(-117.139 -235.226)"/><path class="y" d="M60.018,241.021h.728v.728h-.728Z" transform="translate(-58.576 -235.226)"/><path class="y" d="M236.672,241.021h2.682v.728h-2.682Z" transform="translate(-230.989 -235.226)"/><path class="y" d="M380.1,242.205v-1.184h-1.771v.727h1.049v.464Z" transform="translate(-369.24 -235.226)"/><path class="y" d="M241.04,120.029h.727v2.081h-.727Z" transform="translate(-235.252 -117.139)"/><path class="y" d="M241.04,60.025h.727v.727h-.727Z" transform="translate(-235.252 -58.577)"/><path class="y" d="M241.762,307.453h.535v-.727h-.535v-1.36h-.727v3.521h1.321v-.728h-.6Z" transform="translate(-235.254 -298.025)"/><path class="y" d="M308.9,306.624h.727v-.535h.582v-.728h-1.891v.728h.582Z" transform="translate(-300.915 -298.028)"/><path class="y" d="M407.007.022V.75h1.8V2.544h.727V.022Z" transform="translate(-397.232 -0.015)"/><path class="y" d="M.728.745h1.8V.017H0V2.546H.728Z" transform="translate(0 -0.017)"/><path class="y" d="M408.808,408.814h-1.8v.728h2.523V407.02H408.8Z" transform="translate(-397.232 -397.232)"/><path class="y" d="M.728,407.015H0v2.522H2.523v-.728H.728Z" transform="translate(0 -397.234)"/></g><g transform="translate(48.014 0)"><path class="y" d="M63.54,60.026H60.019v3.521H63.54Zm-.728,2.8H60.732V60.746h2.081Z" transform="translate(-58.577 -58.578)"/><path class="y" d="M118.344,118.351h.727v.728h-.727Z" transform="translate(-115.502 -115.502)"/><path class="y" d="M60.019,308.887H63.54v-3.521H60.019Zm.728-2.8h2.081v2.081H60.747Z" transform="translate(-58.577 -298.025)"/><path class="y" d="M329.073,320.366h-.727v2.442h-.706v-.535h-.728v.535h-.873v.728h3.026Z" transform="translate(-318.217 -312.666)"/><path class="y" d="M118.344,363.69h.727v.728h-.727Z" transform="translate(-115.502 -354.95)"/><path class="y" d="M308.909,60.026h-3.521v3.521h3.521Zm-.728,2.8H306.1V60.746h2.081Z" transform="translate(-298.055 -58.578)"/><path class="y" d="M363.714,118.351h.728v.728h-.728Z" transform="translate(-354.98 -115.502)"/><path class="y" d="M120.021,241.021H122.1v.728h-2.081Z" transform="translate(-117.139 -235.226)"/><path class="y" d="M60.018,241.021h.728v.728h-.728Z" transform="translate(-58.576 -235.226)"/><path class="y" d="M236.672,241.021h2.682v.728h-2.682Z" transform="translate(-230.989 -235.226)"/><path class="y" d="M380.1,242.205v-1.184h-1.771v.727h1.049v.464Z" transform="translate(-369.24 -235.226)"/><path class="y" d="M241.04,120.029h.727v2.081h-.727Z" transform="translate(-235.252 -117.139)"/><path class="y" d="M241.04,60.025h.727v.727h-.727Z" transform="translate(-235.252 -58.577)"/><path class="y" d="M241.762,307.453h.535v-.727h-.535v-1.36h-.727v3.521h1.321v-.728h-.6Z" transform="translate(-235.254 -298.025)"/><path class="y" d="M308.9,306.624h.727v-.535h.582v-.728h-1.891v.728h.582Z" transform="translate(-300.915 -298.028)"/><path class="y" d="M407.007.022V.75h1.8V2.544h.727V.022Z" transform="translate(-397.232 -0.015)"/><path class="y" d="M.728.745h1.8V.017H0V2.546H.728Z" transform="translate(0 -0.017)"/><path class="y" d="M408.808,408.814h-1.8v.728h2.523V407.02H408.8Z" transform="translate(-397.232 -397.232)"/><path class="y" d="M.728,407.015H0v2.522H2.523v-.728H.728Z" transform="translate(0 -397.234)"/></g><g transform="translate(100.395 0)"><path class="y" d="M63.54,60.026H60.019v3.521H63.54Zm-.728,2.8H60.732V60.746h2.081Z" transform="translate(-58.577 -58.578)"/><path class="y" d="M118.344,118.351h.727v.728h-.727Z" transform="translate(-115.502 -115.502)"/><path class="y" d="M60.019,308.887H63.54v-3.521H60.019Zm.728-2.8h2.081v2.081H60.747Z" transform="translate(-58.577 -298.025)"/><path class="y" d="M329.073,320.366h-.727v2.442h-.706v-.535h-.728v.535h-.873v.728h3.026Z" transform="translate(-318.217 -312.666)"/><path class="y" d="M118.344,363.69h.727v.728h-.727Z" transform="translate(-115.502 -354.95)"/><path class="y" d="M308.909,60.026h-3.521v3.521h3.521Zm-.728,2.8H306.1V60.746h2.081Z" transform="translate(-298.055 -58.578)"/><path class="y" d="M363.714,118.351h.728v.728h-.728Z" transform="translate(-354.98 -115.502)"/><path class="y" d="M120.021,241.021H122.1v.728h-2.081Z" transform="translate(-117.139 -235.226)"/><path class="y" d="M60.018,241.021h.728v.728h-.728Z" transform="translate(-58.576 -235.226)"/><path class="y" d="M236.672,241.021h2.682v.728h-2.682Z" transform="translate(-230.989 -235.226)"/><path class="y" d="M380.1,242.205v-1.184h-1.771v.727h1.049v.464Z" transform="translate(-369.24 -235.226)"/><path class="y" d="M241.04,120.029h.727v2.081h-.727Z" transform="translate(-235.252 -117.139)"/><path class="y" d="M241.04,60.025h.727v.727h-.727Z" transform="translate(-235.252 -58.577)"/><path class="y" d="M241.762,307.453h.535v-.727h-.535v-1.36h-.727v3.521h1.321v-.728h-.6Z" transform="translate(-235.254 -298.025)"/><path class="y" d="M308.9,306.624h.727v-.535h.582v-.728h-1.891v.728h.582Z" transform="translate(-300.915 -298.028)"/><path class="y" d="M407.007.022V.75h1.8V2.544h.727V.022Z" transform="translate(-397.232 -0.015)"/><path class="y" d="M.728.745h1.8V.017H0V2.546H.728Z" transform="translate(0 -0.017)"/><path class="y" d="M408.808,408.814h-1.8v.728h2.523V407.02H408.8Z" transform="translate(-397.232 -397.232)"/><path class="y" d="M.728,407.015H0v2.522H2.523v-.728H.728Z" transform="translate(0 -397.234)"/></g><g transform="translate(151.32 0)"><path class="y" d="M63.54,60.026H60.019v3.521H63.54Zm-.728,2.8H60.732V60.746h2.081Z" transform="translate(-58.577 -58.578)"/><path class="y" d="M118.344,118.351h.727v.728h-.727Z" transform="translate(-115.502 -115.502)"/><path class="y" d="M60.019,308.887H63.54v-3.521H60.019Zm.728-2.8h2.081v2.081H60.747Z" transform="translate(-58.577 -298.025)"/><path class="y" d="M329.073,320.366h-.727v2.442h-.706v-.535h-.728v.535h-.873v.728h3.026Z" transform="translate(-318.217 -312.666)"/><path class="y" d="M118.344,363.69h.727v.728h-.727Z" transform="translate(-115.502 -354.95)"/><path class="y" d="M308.909,60.026h-3.521v3.521h3.521Zm-.728,2.8H306.1V60.746h2.081Z" transform="translate(-298.055 -58.578)"/><path class="y" d="M363.714,118.351h.728v.728h-.728Z" transform="translate(-354.98 -115.502)"/><path class="y" d="M120.021,241.021H122.1v.728h-2.081Z" transform="translate(-117.139 -235.226)"/><path class="y" d="M60.018,241.021h.728v.728h-.728Z" transform="translate(-58.576 -235.226)"/><path class="y" d="M236.672,241.021h2.682v.728h-2.682Z" transform="translate(-230.989 -235.226)"/><path class="y" d="M380.1,242.205v-1.184h-1.771v.727h1.049v.464Z" transform="translate(-369.24 -235.226)"/><path class="y" d="M241.04,120.029h.727v2.081h-.727Z" transform="translate(-235.252 -117.139)"/><path class="y" d="M241.04,60.025h.727v.727h-.727Z" transform="translate(-235.252 -58.577)"/><path class="y" d="M241.762,307.453h.535v-.727h-.535v-1.36h-.727v3.521h1.321v-.728h-.6Z" transform="translate(-235.254 -298.025)"/><path class="y" d="M308.9,306.624h.727v-.535h.582v-.728h-1.891v.728h.582Z" transform="translate(-300.915 -298.028)"/><path class="y" d="M407.007.022V.75h1.8V2.544h.727V.022Z" transform="translate(-397.232 -0.015)"/><path class="y" d="M.728.745h1.8V.017H0V2.546H.728Z" transform="translate(0 -0.017)"/><path class="y" d="M408.808,408.814h-1.8v.728h2.523V407.02H408.8Z" transform="translate(-397.232 -397.232)"/><path class="y" d="M.728,407.015H0v2.522H2.523v-.728H.728Z" transform="translate(0 -397.234)"/></g></g></g></svg>