<?xml version="1.0" encoding="utf-8"?>
<!-- Generator: Adobe Illustrator 20.1.0, SVG Export Plug-In . SVG Version: 6.00 Build 0)  -->
<svg version="1.1" id="Layer_1" xmlns="http://www.w3.org/2000/svg" xmlns:xlink="http://www.w3.org/1999/xlink" x="0px" y="0px"
	 viewBox="0 0 145.1 47.6" style="enable-background:new 0 0 145.1 47.6;" xml:space="preserve">
<style type="text/css">
	.st0{fill:#50B163;}
	.st1{enable-background:new    ;}
</style>
<path class="st0" d="M35.9,47.6H4c-1,0-2-0.5-2.7-1.2c-0.9-1-1.4-2.4-1.3-3.8l3.1-26.8c0.2-2.4,1.9-4.4,4-4.4h3.5V9.9
	C10.6,4.5,14.8,0,20,0c2.5,0,4.9,1.1,6.6,2.9c1.8,1.9,2.7,4.4,2.7,7v1.5h3.5c2.1,0,3.9,1.9,4,4.4l0.3,2.5l2.8,24.3
	c0.1,1.4-0.4,2.8-1.3,3.8C37.9,47.2,36.9,47.6,35.9,47.6z M9.1,19.1c-1,0-1.8,0.8-1.8,1.8s0.8,1.8,1.8,1.8c5.3,0,10.4,2.1,14.2,5.9
	c3.8,3.8,5.9,8.9,5.9,14.2c0,1,0.8,1.8,1.8,1.8s1.8-0.8,1.8-1.8C32.7,29.7,22.1,19.1,9.1,19.1L9.1,19.1z M9.1,26.6
	c-1,0-1.8,0.8-1.8,1.8s0.8,1.8,1.8,1.8c7,0,12.6,5.7,12.6,12.6c0,1,0.8,1.7,1.8,1.8c1,0,1.8-0.7,1.8-1.7c0,0,0-0.1,0-0.1
	c0-8.9-7.2-16.2-16.1-16.2C9.2,26.6,9.1,26.6,9.1,26.6L9.1,26.6z M12,35.1c-2.6,0-4.7,2.1-4.7,4.6c0,0,0,0,0,0c0,2.6,2,4.7,4.6,4.7
	c2.6,0,4.7-2,4.7-4.6c0-1.2-0.4-2.4-1.3-3.3C14.5,35.6,13.2,35.1,12,35.1L12,35.1z M20,1.9c-4.1,0-7.4,3.6-7.4,8v1.5h14.8V9.9
	c0-2.1-0.8-4.1-2.2-5.7C23.8,2.8,21.9,2,20,1.9L20,1.9z"/>
<g class="st1">
	<path class="st0" d="M60.4,32.6h-3.2l-2.8-5.2c-0.3-0.5-0.6-0.8-1-1c-0.4-0.2-0.9-0.3-1.4-0.3h-2.3v6.5h-2.9V16.4H54
		c1.8,0,3.2,0.4,4.2,1.2c1,0.8,1.4,2,1.4,3.6c0,1.2-0.3,2.3-1,3.1c-0.7,0.8-1.7,1.3-3,1.6c0.9,0.2,1.5,0.8,2.1,1.8L60.4,32.6z
		 M56,23.2c0.5-0.4,0.8-1.1,0.8-1.9c0-0.9-0.3-1.5-0.8-1.9c-0.5-0.4-1.3-0.6-2.5-0.6h-3.9v5.1h3.9C54.7,23.8,55.5,23.6,56,23.2z"/>
	<path class="st0" d="M72.4,27.5h-7.7c0.1,1,0.4,1.8,0.9,2.3c0.5,0.5,1.3,0.8,2.3,0.8c1.2,0,2.4-0.4,3.4-1.2l0.8,2
		c-0.5,0.4-1.2,0.8-2,1c-0.8,0.3-1.6,0.4-2.4,0.4c-1.8,0-3.3-0.5-4.4-1.6c-1.1-1-1.6-2.5-1.6-4.3c0-1.1,0.2-2.2,0.7-3.1
		s1.1-1.6,1.9-2.1c0.8-0.5,1.8-0.7,2.8-0.7c1.5,0,2.8,0.5,3.7,1.5c0.9,1,1.3,2.4,1.3,4.1V27.5z M65.6,23.8c-0.5,0.5-0.8,1.2-0.9,2.1
		H70c0-0.9-0.3-1.6-0.7-2.1s-1-0.7-1.8-0.7C66.7,23.1,66.1,23.3,65.6,23.8z"/>
	<path class="st0" d="M76.8,32.1c-0.9-0.5-1.5-1.1-2-2s-0.7-1.9-0.7-3.1c0-1.2,0.2-2.2,0.7-3.1c0.5-0.9,1.2-1.6,2.1-2.1
		c0.9-0.5,1.9-0.7,3.1-0.7c0.8,0,1.6,0.1,2.3,0.4c0.8,0.3,1.4,0.6,1.8,1l-0.8,2c-0.5-0.4-1-0.7-1.5-0.9c-0.5-0.2-1.1-0.3-1.6-0.3
		c-1,0-1.8,0.3-2.3,0.9c-0.6,0.6-0.8,1.5-0.8,2.7c0,1.2,0.3,2,0.8,2.7c0.6,0.6,1.3,0.9,2.3,0.9c0.5,0,1-0.1,1.6-0.3
		c0.5-0.2,1-0.5,1.5-0.9l0.8,2c-0.5,0.4-1.1,0.8-1.9,1c-0.8,0.3-1.6,0.4-2.4,0.4C78.7,32.8,77.7,32.5,76.8,32.1z"/>
	<path class="st0" d="M96.3,21.4v11.2h-2.8v-1.7c-0.4,0.6-0.8,1.1-1.4,1.4c-0.6,0.3-1.3,0.5-2,0.5c-2.8,0-4.1-1.5-4.1-4.6v-6.8h2.9
		v6.8c0,0.8,0.2,1.4,0.5,1.8c0.3,0.4,0.8,0.6,1.5,0.6c0.8,0,1.4-0.3,1.9-0.8c0.5-0.5,0.7-1.2,0.7-2.1v-6.3H96.3z"/>
	<path class="st0" d="M106.7,23.5l-1.7,0.2c-1.9,0.2-2.9,1.2-2.9,2.9v6.1h-2.9V21.4h2.7v2c0.6-1.3,1.8-2.1,3.6-2.2l0.9-0.1
		L106.7,23.5z"/>
	<path class="st0" d="M117.2,21.8c0.8,0.5,1.3,1.2,1.8,2.1c0.4,0.9,0.6,1.9,0.6,3.1c0,1.2-0.2,2.2-0.6,3.1s-1,1.5-1.8,2
		c-0.8,0.5-1.6,0.7-2.6,0.7c-0.8,0-1.5-0.2-2.1-0.5s-1.1-0.8-1.4-1.4v5.9h-2.9V21.4h2.8v1.7c0.3-0.6,0.8-1.1,1.5-1.5
		c0.6-0.3,1.4-0.5,2.2-0.5C115.5,21.1,116.4,21.3,117.2,21.8z M115.9,29.6c0.5-0.6,0.8-1.5,0.8-2.6c0-1.2-0.3-2.1-0.8-2.7
		c-0.5-0.6-1.2-1-2.1-1c-0.9,0-1.6,0.3-2.1,0.9c-0.5,0.6-0.7,1.5-0.7,2.7c0,1.2,0.2,2,0.7,2.7c0.5,0.6,1.2,0.9,2.1,0.9
		C114.7,30.6,115.4,30.2,115.9,29.6z"/>
	<path class="st0" d="M130.3,22.2c0.8,0.8,1.2,1.9,1.2,3.5v6.8h-2.7v-1.7c-0.3,0.6-0.7,1.1-1.2,1.4s-1.2,0.5-1.9,0.5
		c-0.8,0-1.4-0.2-2-0.5c-0.6-0.3-1.1-0.7-1.4-1.3c-0.4-0.5-0.5-1.1-0.5-1.8c0-0.8,0.2-1.5,0.6-2c0.4-0.5,1.1-0.8,2.1-1
		c1-0.2,2.3-0.3,3.9-0.3h0.6v-0.5c0-0.8-0.2-1.3-0.5-1.7c-0.3-0.3-0.9-0.5-1.6-0.5c-0.6,0-1.2,0.1-1.9,0.3s-1.3,0.5-1.9,0.9l-0.8-2
		c0.6-0.4,1.4-0.7,2.3-1c0.9-0.3,1.7-0.4,2.5-0.4C128.3,21.1,129.5,21.5,130.3,22.2z M128,29.9c0.5-0.5,0.7-1.2,0.7-2v-0.5h-0.4
		c-1,0-1.8,0-2.4,0.1c-0.6,0.1-1,0.3-1.2,0.5c-0.2,0.2-0.4,0.5-0.4,0.9c0,0.5,0.2,0.9,0.5,1.2c0.3,0.3,0.8,0.5,1.3,0.5
		C126.9,30.7,127.5,30.5,128,29.9z"/>
	<path class="st0" d="M142.2,21.4h2.8l-6.8,15.4h-2.9l2-4.6l-4.7-10.8h3l3.2,7.9L142.2,21.4z"/>
</g>
</svg>
