<svg xmlns="http://www.w3.org/2000/svg" width="39.379" height="36.938" viewBox="0 0 39.379 36.938"><defs><style>.a{fill:#b3eae9;}.b{fill:#020288;}</style></defs><g transform="translate(5.72 11.442)"><path class="a" d="M197.374,164.64h8.93v6.555h-8.93Z" transform="translate(-187.914 -164.64)"/><g transform="translate(0 17.7)"><path class="a" d="M74.374,394.774H83.3v6.821h-8.93Z" transform="translate(-74.374 -394.774)"/></g><g transform="translate(18.92 17.7)"><path class="a" d="M320.374,394.774h8.93V401.6h-8.93Z" transform="translate(-320.374 -394.774)"/></g></g><g transform="translate(0 0)"><path class="b" d="M74.5,286.774a.769.769,0,0,0-.769.769v.967H66.4v-.967a.769.769,0,1,0-1.538,0v1.736a.769.769,0,0,0,.769.769H74.5a.769.769,0,0,0,.769-.769v-1.736A.769.769,0,0,0,74.5,286.774Z" transform="translate(-59.872 -265.938)"/><path class="b" d="M37.124,33.566H29.8a2.249,2.249,0,0,0,.117-.719V18.123a2.259,2.259,0,0,0-2.257-2.257H11.717A2.259,2.259,0,0,0,9.46,18.123V32.847a2.247,2.247,0,0,0,.117.719H2.257A2.259,2.259,0,0,0,0,35.823V50.547A2.259,2.259,0,0,0,2.257,52.8H18.2a2.247,2.247,0,0,0,1.488-.561,2.243,2.243,0,0,0,1.485.561H37.124a2.259,2.259,0,0,0,2.255-2.259V35.825a2.259,2.259,0,0,0-2.255-2.259ZM11,32.847V18.123a.719.719,0,0,1,.719-.719H27.662a.719.719,0,0,1,.719.719V32.847a.719.719,0,0,1-.719.719H11.717A.719.719,0,0,1,11,32.847Zm7.922,17.7a.719.719,0,0,1-.719.719H2.257a.719.719,0,0,1-.719-.719V35.823a.719.719,0,0,1,.719-.719H18.2a.719.719,0,0,1,.719.719Zm18.92,0a.719.719,0,0,1-.716.721H21.175a.719.719,0,0,1-.716-.721V35.825a.719.719,0,0,1,.716-.721H37.124a.719.719,0,0,1,.716.721v14.72Z" transform="translate(0 -15.866)"/><path class="b" d="M320.5,286.774a.769.769,0,0,0-.769.769v.967H312.4v-.967a.769.769,0,0,0-1.538,0v1.736a.769.769,0,0,0,.769.769H320.5a.769.769,0,0,0,.769-.769v-1.736A.769.769,0,0,0,320.5,286.774Z" transform="translate(-286.951 -265.938)"/><path class="b" d="M198.272,59.145V57.409a.769.769,0,1,0-1.538,0v.967H189.4v-.967a.769.769,0,1,0-1.538,0v1.736a.769.769,0,0,0,.769.769H197.5A.769.769,0,0,0,198.272,59.145Z" transform="translate(-173.411 -53.504)"/></g></svg>