<svg xmlns="http://www.w3.org/2000/svg" width="33.51" height="38.039" viewBox="0 0 33.51 38.039"><defs><style>.a{fill:#020288;stroke:#020288;stroke-width:0.5px;}.b{fill:#b3eae9;stroke:#b3eae9;stroke-width:1.2px;}</style></defs><g transform="translate(0.258 0.25)"><path class="a" d="M36.122,30.912A15.257,15.257,0,0,1,31.33,19.793V13.655a9.931,9.931,0,0,0-5.822-9.02,13.721,13.721,0,0,0-2.385-.83V3.413a3.413,3.413,0,1,0-6.825,0v.451a13.514,13.514,0,0,0-2.147.777,10.326,10.326,0,0,0-6.044,9.01v6.143A15.143,15.143,0,0,1,3.53,30.912.683.683,0,0,0,3.9,32.069l6.478,1.119c1.207.208,2.318.379,3.375.519a6.748,6.748,0,0,0,12.172,0c1.053-.14,2.159-.31,3.359-.517l6.477-1.119a.683.683,0,0,0,.366-1.156Zm-18.46-27.5a2.048,2.048,0,0,1,4.1,0v.124a13.571,13.571,0,0,0-4.1.032Zm2.172,32.761a5.47,5.47,0,0,1-4.38-2.263,42.272,42.272,0,0,0,4.372.236,42.042,42.042,0,0,0,4.389-.238A5.472,5.472,0,0,1,19.835,36.174Zm9.213-4.332c-1.31.226-2.51.41-3.645.554h0c-.5.063-.986.119-1.461.167h-.015c-.435.044-.86.078-1.28.109l-.239.016c-.364.024-.725.043-1.083.057l-.221.009c-.849.029-1.687.029-2.535,0l-.227-.01q-.53-.02-1.07-.056l-.255-.017c-.41-.029-.824-.064-1.248-.106l-.044,0c-.472-.047-.955-.1-1.451-.165h-.006c-1.138-.144-2.343-.329-3.659-.556l-5.229-.9a16.427,16.427,0,0,0,4.1-11.146V13.655A8.936,8.936,0,0,1,14.721,5.88a12.2,12.2,0,0,1,2.387-.807l.021,0A12.409,12.409,0,0,1,22.3,5.024c.009,0,.018,0,.027,0a12.344,12.344,0,0,1,2.611.852,8.664,8.664,0,0,1,5.024,7.775v6.143A16.608,16.608,0,0,0,34.273,30.94Z" transform="translate(-3.329)"/><path class="b" d="M27.9,10.916a10.429,10.429,0,0,0-8.51,0,6.9,6.9,0,0,0-4.06,5.907.683.683,0,0,0,.678.687h0a.682.682,0,0,0,.683-.678,5.505,5.505,0,0,1,3.266-4.675,9.035,9.035,0,0,1,7.371,0,.682.682,0,1,0,.569-1.241Z" transform="translate(-7.139 -3.178)"/></g></svg>