<svg xmlns="http://www.w3.org/2000/svg" xmlns:xlink="http://www.w3.org/1999/xlink" width="110" height="110" viewBox="0 0 110 110"><defs><style>.a{fill:#fff;}.b,.e{fill:none;}.b,.c{stroke:#020288;stroke-width:2px;}.b{stroke-linecap:round;stroke-linejoin:round;}.c{fill:#b3eae9;}.d{stroke:none;}.f{filter:url(#a);}</style><filter id="a" x="0" y="0" width="110" height="110" filterUnits="userSpaceOnUse"><feOffset input="SourceAlpha"/><feGaussianBlur stdDeviation="6" result="b"/><feFlood flood-opacity="0.129"/><feComposite operator="in" in2="b"/><feComposite in="SourceGraphic"/></filter></defs><g transform="translate(-180 -2566)"><g class="f" transform="matrix(1, 0, 0, 1, 180, 2566)"><circle class="a" cx="37" cy="37" r="37" transform="translate(18 18)"/></g><g transform="translate(215.217 2602.348)"><path class="b" d="M8635.5,2259.832l10.944-18.852,10.784,12.381,10.943-21.886" transform="translate(-8633.308 -2225.042)"/><g class="c" transform="translate(-0.217 29.652)"><circle class="d" cx="3.5" cy="3.5" r="3.5"/><circle class="e" cx="3.5" cy="3.5" r="2.5"/></g><g class="c" transform="translate(8.783 12.652)"><circle class="d" cx="3.5" cy="3.5" r="3.5"/><circle class="e" cx="3.5" cy="3.5" r="2.5"/></g><g class="c" transform="translate(19.783 23.652)"><circle class="d" cx="4" cy="4" r="4"/><circle class="e" cx="4" cy="4" r="3"/></g><g class="c" transform="translate(31.783 -0.348)"><ellipse class="d" cx="3.5" cy="4" rx="3.5" ry="4"/><ellipse class="e" cx="3.5" cy="4" rx="2.5" ry="3"/></g></g></g></svg>