<svg xmlns="http://www.w3.org/2000/svg" width="20.308" height="20.308" viewBox="0 0 20.308 20.308"><defs><style>.a{stroke:#000;stroke-width:0.6px;}</style></defs><g transform="translate(5.5 5.846)"><path class="a" d="M58.258,57l-4.632,2.235V64.21l4.632,2.546L62.89,64.21V59.235Zm0,.444,3.975,1.918-1.387.669-3.9-1.955Zm-.2,8.748L54.02,63.97V59.679l4.041,1.95v4.563Zm-3.778-6.83,1.927-.929,3.9,1.955-1.849.892ZM62.5,63.97l-4.041,2.222V61.629l1.92-.926v1.241l.632-.306V60.4L62.5,59.68v4.29ZM57.747,62.4Z" transform="translate(-53.626 -57)"/></g><path d="M10.154,0A10.074,10.074,0,0,0,3.44,2.537L1.805.835.9,6.1l5.436-.766L4.719,3.816a8.349,8.349,0,1,1-2.914,6.337H0A10.154,10.154,0,1,0,10.154,0Z" transform="translate(0 0)"/></svg>