<svg xmlns="http://www.w3.org/2000/svg" width="29.754" height="32.331" viewBox="0 0 29.754 32.331"><defs><style>.a{fill:#b3eae9;}.b{fill:#020288;}</style></defs><g transform="translate(10.669 5.207)"><path class="a" d="M199.879,89.6l1.885-1.883a1.574,1.574,0,0,1,0-2.227l-3.033-3.031a1.576,1.576,0,0,1-2.228,0l-7.146,7.14h10.522Z" transform="translate(-189.357 -82.463)"/></g><g transform="translate(0 0)"><g transform="translate(0 0)"><path class="b" d="M47.636,25.066v5.021a.983.983,0,0,1-.983.981H25.577V12.979H46.653a.983.983,0,0,1,.983.981v5.021H48.9V13.96a2.248,2.248,0,0,0-1.815-2.2l1.05-1.049a1.918,1.918,0,0,0,0-2.715L40.694.561a1.923,1.923,0,0,0-2.715,0L26.815,11.716H22.654a2.248,2.248,0,0,0-2.246,2.244V30.087a2.247,2.247,0,0,0,2.246,2.244h24A2.248,2.248,0,0,0,48.9,30.087V25.066H47.636ZM38.872,1.454a.659.659,0,0,1,.93,0l7.439,7.433a.655.655,0,0,1,0,.928l-1.9,1.9H28.6ZM24.314,31.068H22.654a.983.983,0,0,1-.983-.981V13.96a.983.983,0,0,1,.983-.981h1.661Z" transform="translate(-20.408 0.001)"/></g></g><path class="a" d="M328.58,297.929h-7.313a3.674,3.674,0,1,1,0-7.348h7.313Z" transform="translate(-298.826 -272.231)"/><g transform="translate(20.763 19.926)"><path class="b" d="M351.3,319.728a2.1,2.1,0,1,1,2.1-2.1A2.1,2.1,0,0,1,351.3,319.728Zm0-2.934a.835.835,0,1,0,.837.835A.837.837,0,0,0,351.3,316.795Z" transform="translate(-349.202 -315.532)"/></g></svg>